<?xml version="1.0" encoding="UTF-8" standalone="no"?>
<!-- Created with Inkscape (http://www.inkscape.org/) -->

<svg
   xmlns:dc="http://purl.org/dc/elements/1.1/"
   xmlns:cc="http://creativecommons.org/ns#"
   xmlns:rdf="http://www.w3.org/1999/02/22-rdf-syntax-ns#"
   xmlns:svg="http://www.w3.org/2000/svg"
   xmlns="http://www.w3.org/2000/svg"
   xmlns:sodipodi="http://sodipodi.sourceforge.net/DTD/sodipodi-0.dtd"
   xmlns:inkscape="http://www.inkscape.org/namespaces/inkscape"
   width="453.26633"
   height="290.87726"
   viewBox="0 0 119.92672 76.961271"
   version="1.1"
   id="svg8"
   inkscape:version="0.92.3 (3ce5693, 2018-03-11)"
   sodipodi:docname="logo-web.svg">
  <defs
     id="defs2" />
  <sodipodi:namedview
     id="base"
     pagecolor="#ffffff"
     bordercolor="#666666"
     borderopacity="1.0"
     inkscape:pageopacity="0.0"
     inkscape:pageshadow="2"
     inkscape:zoom="1.979899"
     inkscape:cx="222.81926"
     inkscape:cy="42.189677"
     inkscape:document-units="mm"
     inkscape:current-layer="layer1"
     showgrid="false"
     inkscape:window-width="3102"
     inkscape:window-height="1703"
     inkscape:window-x="405"
     inkscape:window-y="2201"
     inkscape:window-maximized="1"
     showguides="true"
     inkscape:guide-bbox="true"
     fit-margin-top="5"
     fit-margin-left="5"
     fit-margin-right="5"
     fit-margin-bottom="5"
     units="px" />
  <metadata
     id="metadata5">
    <rdf:RDF>
      <cc:Work
         rdf:about="">
        <dc:format>image/svg+xml</dc:format>
        <dc:type
           rdf:resource="http://purl.org/dc/dcmitype/StillImage" />
        <dc:title></dc:title>
      </cc:Work>
    </rdf:RDF>
  </metadata>
  <g
     inkscape:label="Layer 1"
     inkscape:groupmode="layer"
     id="layer1"
     transform="translate(-50.191737,114.58893)">
    <path
       style="font-style:normal;font-variant:normal;font-weight:300;font-stretch:normal;font-size:16.3664608px;line-height:1.25;font-family:Atma;-inkscape-font-specification:'Atma, Light';font-variant-ligatures:normal;font-variant-caps:normal;font-variant-numeric:normal;font-feature-settings:normal;text-align:start;letter-spacing:0px;word-spacing:-2.62097669px;writing-mode:lr-tb;text-anchor:start;fill:#000000;fill-opacity:1;stroke:none;stroke-width:1.54641688"
       d="m 169.56836,0 c -0.69141,0 -1.2832,0.24608598 -1.77539,0.73828125 -0.48047,0.49217005 -0.7207,1.07812745 -0.7207,1.75781255 v 5.2910156 c -1.1836,-0.6796851 -2.4375,-1.0195313 -3.76172,-1.0195313 -2.14453,0 -3.96094,0.7910123 -5.44922,2.3730469 -1.5,1.582009 -2.25,3.498044 -2.25,5.748047 0,2.238286 0.75,4.148434 2.25,5.730469 1.48828,1.582034 3.30469,2.373047 5.44922,2.373047 1.32422,0 2.57812,-0.339847 3.76172,-1.019532 -0.0234,0.257814 0.0703,0.492202 0.28125,0.703125 0.18751,0.210898 0.4336,0.316407 0.73828,0.316407 h 3.00586 c 0.28125,0 0.52734,-0.105509 0.73828,-0.316407 0.22266,-0.210897 0.32228,-0.445285 0.29883,-0.703125 V 2.4960938 c 0,-0.6796851 -0.2461,-1.2656425 -0.73829,-1.75781255 C 170.9043,0.24608598 170.31836,0 169.63867,0 Z M 29.154297,0.140625 c -0.679688,0 -1.277343,0.234388 -1.792969,0.703125 -0.468749,0.4921953 -0.703125,1.0839891 -0.703125,1.7753906 V 20.636719 c 0,0.703118 0.234376,1.294912 0.703125,1.77539 0.46875,0.468737 1.060546,0.703125 1.775391,0.703125 h 0.01758 c 0.691406,0 1.283203,-0.234388 1.775391,-0.703125 0.492186,-0.480478 0.738281,-1.072272 0.738281,-1.77539 v -7.435547 -0.0332 c 0,-0.175874 0.01759,-0.304779 0.05273,-0.386719 0.128907,-0.726576 0.685547,-1.388684 1.669922,-1.986328 1.136718,-0.679685 2.238282,-0.767483 3.304687,-0.263672 1.007814,0.49217 1.511719,1.640614 1.511719,3.445312 v 6.695313 c 0,0.679685 0.234376,1.26171 0.703125,1.742187 0.46875,0.468738 1.048828,0.701172 1.740235,0.701172 h 0.05273 c 0.691407,0 1.271482,-0.232434 1.740234,-0.701172 0.492186,-0.480477 0.738282,-1.062502 0.738282,-1.742187 l -0.03516,-5.712891 c 0,-2.4961 -0.621091,-4.535152 -1.863281,-6.1171871 -1.230468,-1.5937512 -3.175782,-2.2499973 -5.835937,-1.96875 -1.171876,0.1290078 -2.414061,0.7735307 -3.726563,1.9335937 l -0.05273,-6.2226562 c 0,-0.6914016 -0.234373,-1.2714722 -0.703125,-1.7402344 -0.492183,-0.46874 -1.083982,-0.703128 -1.775386,-0.703128 z m 237.726563,0 c -0.67969,0 -1.27734,0.234388 -1.79297,0.703125 -0.46876,0.4921953 -0.70312,1.0839891 -0.70312,1.7753906 V 20.636719 c 0,0.703118 0.23436,1.294912 0.70312,1.77539 0.46874,0.468737 1.06053,0.703125 1.77539,0.703125 h 0.0195 c 0.6914,0 1.2832,-0.234388 1.77539,-0.703125 0.49217,-0.480478 0.73828,-1.072272 0.73828,-1.77539 v -7.435547 -0.0332 c 0,-0.175874 0.0175,-0.304779 0.0527,-0.386719 0.12901,-0.726576 0.68566,-1.388684 1.66992,-1.986328 1.13671,-0.679685 2.23828,-0.767483 3.30469,-0.263672 1.00782,0.49217 1.51172,1.640614 1.51172,3.445312 v 6.695313 c 0,0.679685 0.23436,1.26171 0.70312,1.742187 0.46874,0.468738 1.04883,0.701172 1.74024,0.701172 h 0.0527 c 0.6914,0 1.2715,-0.232434 1.74024,-0.701172 0.49218,-0.480477 0.73828,-1.062502 0.73828,-1.742187 l -0.0371,-5.712891 c 0,-2.4961 -0.62108,-4.535152 -1.86328,-6.1171871 -1.23047,-1.5937512 -3.17578,-2.2499973 -5.83594,-1.96875 -1.17188,0.1290078 -2.41409,0.7735307 -3.72656,1.9335937 l -0.0527,-6.2226562 c 0,-0.6914016 -0.23439,-1.2714722 -0.70312,-1.7402344 -0.4922,-0.468737 -1.08399,-0.703125 -1.77539,-0.703125 z m -71.91211,0.50976562 c -0.16403,0 -0.416,0.0234464 -0.75586,0.0703125 -2.84767,0.25781418 -5.27344,1.38867268 -7.27734,3.39257808 -2.07422,2.0507969 -3.11133,4.7519565 -3.11133,8.1035158 0,3.093745 0.9082,5.601548 2.72461,7.523437 1.81641,1.921865 4.37108,3.041025 7.66406,3.357422 0.22274,0.05871 0.38095,0.08216 0.47461,0.07031 0.0353,-0.0126 0.0762,-0.0126 0.12305,0 h 0.29883 c 0.0353,0.0126 0.0762,0.0126 0.12304,0 0.10558,-0.03528 0.26379,-0.05872 0.47461,-0.07031 3.19922,-0.199307 5.75392,-1.318467 7.66406,-3.357422 1.82814,-1.957039 2.73633,-4.464842 2.72461,-7.523437 0.0126,-3.3281262 -1.02453,-6.0292858 -3.11132,-8.1035158 -1.87503,-1.8984313 -4.30079,-3.0292899 -7.27735,-3.39257808 -0.3164,-0.0468661 -0.56248,-0.0703125 -0.73828,-0.0703125 z M 10.328125,0.98632812 c -0.7265613,0 -1.3476555,0.25780918 -1.8632812,0.77343748 C 7.9492179,2.275394 7.6914063,2.8847725 7.6914062,3.5878906 V 20.65625 c 0,0.679685 0.2578117,1.27734 0.7734376,1.792969 0.4921876,0.492195 1.0898435,0.738281 1.7929682,0.738281 h 0.07031 c 0.667969,0 1.265624,-0.246086 1.792969,-0.738281 0.515626,-0.468737 0.773437,-1.066393 0.773437,-1.792969 v -5.414062 l 3.867188,-0.07031 1.652343,4.904297 c 0.550781,1.652359 1.511719,2.654313 2.882813,3.005859 0.656249,0.187465 1.283203,0.105402 1.880859,-0.246093 h 0.03516 c 0.515623,-0.0126 0.902342,-0.528217 1.160156,-1.546876 0.199206,-0.796874 0.111308,-1.511737 -0.263672,-2.144531 l -3.199219,-5.380859 c 0.503905,-0.433613 0.919921,-0.908225 1.248047,-1.423828 0.902345,-1.406262 1.353516,-2.8183504 1.353516,-4.2363284 0,-1.7460913 -0.580078,-3.2929714 -1.740235,-4.640625 C 20.634764,2.1269536 19.210937,1.3359413 17.5,1.0898438 L 17.341797,1.0566406 C 17.154307,1.0097745 16.8379,0.98632812 16.392578,0.98632812 Z M 219.22656,1.0195312 c -0.60938,-0.012598 -1.14846,0.1983433 -1.61718,0.6328126 -0.44533,0.4218707 -0.66797,0.9492123 -0.66797,1.5820312 v 17.560547 c 0,0.667968 0.23436,1.207033 0.70312,1.617187 0.52735,0.445304 1.09572,0.656246 1.70508,0.632813 2.09766,-0.09373 3.21094,-0.134638 3.33984,-0.123047 4.52344,-0.0126 7.58203,-0.598531 9.17578,-1.757813 1.62891,-1.207028 2.4375,-2.71874 2.42579,-4.535156 0,-2.578116 -1.24805,-4.242178 -3.74414,-4.992187 -0.15245,-0.05871 -0.22852,-0.228645 -0.22852,-0.509766 0,-0.152441 0.0643,-0.263685 0.19336,-0.333984 2.01562,-0.9140666 3.02344,-2.2910108 3.02344,-4.1308596 0,-2.0156221 -0.93164,-3.468742 -2.79493,-4.359375 -1.45312,-0.7617008 -3.77346,-1.1601377 -6.96093,-1.1953125 -1.46485,-0.022677 -2.25586,-0.033203 -2.37305,-0.033203 -1.1133,-0.022677 -1.83986,-0.042089 -2.17969,-0.054688 z m 38.0918,2.2167969 c -0.64454,-0.012598 -1.14257,0.1280294 -1.49414,0.421875 -0.64454,0.4804788 -0.9668,1.1308632 -0.9668,1.9511719 v 1.7929688 h -0.63281 c -0.46874,0 -0.86717,0.1699357 -1.19531,0.5097656 -0.3164,0.316422 -0.47461,0.7031358 -0.47461,1.1601562 v 0.033203 c 0,0.4921951 0.15821,0.8847706 0.47461,1.1777344 0.31639,0.304706 0.71483,0.457031 1.19531,0.457031 h 0.63281 v 4.306641 c 0,2.19142 0.36327,4.007833 1.08985,5.449219 0.85545,1.675792 1.98631,2.507809 3.39257,2.496094 0.86718,0.0126 1.5,-0.585057 1.89844,-1.792969 0.16403,-0.515629 0.21666,-0.966795 0.1582,-1.353516 -0.0821,-0.45702 -0.3165,-0.796867 -0.70312,-1.019531 -0.99608,-0.515628 -1.48828,-1.669933 -1.47656,-3.462891 v -4.623047 h 1.47656 c 0.45705,0 0.8379,-0.152325 1.14258,-0.457031 0.32814,-0.2929638 0.49219,-0.6855393 0.49218,-1.1777344 v -0.033203 c 0,-0.4335874 -0.16404,-0.8203011 -0.49218,-1.1601562 -0.32812,-0.3398299 -0.70897,-0.5097657 -1.14258,-0.5097656 H 259.2168 V 5.609375 C 259.2042,5.058597 259.02843,4.5663999 258.68945,4.1328125 258.22072,3.5351432 257.78711,3.2363281 257.38867,3.2363281 Z M 12.894531,3.3046875 h 2.53125 c 0.832033,0 1.570314,0.3398462 2.214844,1.0195313 0.632811,0.6445353 0.949219,1.8515441 0.949219,3.6210937 0,1.7812409 -0.316408,2.9941365 -0.949219,3.6386715 -0.597657,0.632819 -1.335937,0.960942 -2.214844,0.984375 h -2.53125 z M 194.96875,3.6035156 c 1.40626,0 2.70117,0.6914156 3.88477,2.0742188 1.18359,1.3828283 1.77539,3.041028 1.77539,4.9746096 0,3.808604 -0.5918,6.404306 -1.77539,7.787109 -1.1836,1.382803 -2.51368,2.074219 -3.99024,2.074219 -1.47656,0 -2.77147,-0.691416 -3.88476,-2.074219 -1.13671,-1.429694 -1.69922,-4.025396 -1.6875,-7.787109 0,-1.9101485 0.56251,-3.5683482 1.6875,-4.9746096 1.11329,-1.3828032 2.44337,-2.0742188 3.99023,-2.0742188 z m 29.32031,0.7578125 c 2.28516,0 3.45116,1.0078156 3.49805,3.0234375 0.0227,1.0664063 -0.31131,1.8164126 -1.00195,2.25 -0.69143,0.4218704 -1.68166,0.6328124 -2.97071,0.6328124 h -0.93164 c -0.22274,-0.0126 -0.39851,-0.0789 -0.52734,-0.195312 -0.12901,-0.1290086 -0.19336,-0.2754976 -0.19336,-0.4394535 V 5.0449219 c 0,-0.4101544 0.21678,-0.6269576 0.65039,-0.6503907 0.42187,-0.012598 0.91407,-0.023124 1.47656,-0.033203 z M 47.734375,6.5566406 c -0.808595,0 -1.441408,0.3398462 -1.898437,1.0195313 -0.445312,0.6914015 -0.498041,1.4121 -0.158204,2.1621093 2.109377,4.7460788 3.503907,8.7832018 4.183594,12.1113278 v 0.05273 c 0,1.816415 -0.503905,2.970695 -1.511719,3.46289 -0.433595,0.210898 -0.884766,0.322142 -1.353515,0.333985 -0.597657,-0.0126 -1.025392,0.174897 -1.283203,0.5625 -0.386719,0.656252 -0.580078,1.095695 -0.580079,1.318359 v 0.03516 c 0.01184,0.867175 0.398562,1.447246 1.160157,1.740235 0.339845,0.129008 0.621095,0.222793 0.84375,0.28125 1.933593,0.398438 3.662107,0.06445 5.185547,-1.001953 1.371091,-0.9375 2.355468,-2.302746 2.953125,-4.095704 C 58.486329,14.917949 60.156249,9.925763 60.285156,9.5625 60.554687,8.8124906 60.449229,8.1211001 59.96875,7.4882812 59.476562,6.8672042 58.855468,6.5566406 58.105469,6.5566406 h -0.03516 c -0.562498,0 -1.03125,0.1464894 -1.40625,0.4394532 -0.468748,0.3750046 -0.738279,0.7617184 -0.808593,1.1601562 -0.796873,4.640605 -1.693359,8.003897 -2.689453,10.089844 L 50.300781,8.1035156 c -0.15234,-0.5624945 -0.427729,-0.9375102 -0.826172,-1.125 -0.64453,-0.2812472 -1.083983,-0.421875 -1.318359,-0.421875 z m 93.023435,0 c -0.80859,0 -1.44141,0.3398462 -1.89843,1.0195313 -0.44532,0.6914015 -0.49805,1.4121 -0.15821,2.1621093 2.10938,4.7460788 3.50391,8.7832018 4.1836,12.1113278 v 0.05273 c 0,1.816415 -0.50391,2.970695 -1.51172,3.46289 -0.4336,0.210898 -0.88477,0.322142 -1.35352,0.333985 -0.59766,-0.0126 -1.02539,0.174897 -1.2832,0.5625 -0.38672,0.656252 -0.58008,1.095695 -0.58008,1.318359 v 0.03516 c 0.0118,0.867175 0.39856,1.447246 1.16016,1.740235 0.33984,0.129008 0.62109,0.222793 0.84375,0.28125 1.93359,0.398438 3.66211,0.06445 5.18554,-1.001953 1.3711,-0.9375 2.35547,-2.302746 2.95313,-4.095704 3.21094,-9.621113 4.88086,-14.613299 5.00976,-14.976562 0.26954,-0.7500094 0.16405,-1.4413999 -0.3164,-2.0742188 C 152.5,6.8672042 151.87891,6.5566406 151.12891,6.5566406 h -0.0352 c -0.5625,0 -1.03125,0.1464894 -1.40625,0.4394532 -0.46875,0.3750046 -0.73828,0.7617184 -0.80859,1.1601562 -0.79688,4.640605 -1.69336,8.003897 -2.68946,10.089844 L 143.32422,8.1035156 c -0.15234,-0.5624945 -0.42773,-0.9375102 -0.82617,-1.125 -0.64454,-0.2812472 -1.08399,-0.421875 -1.31836,-0.421875 z m -51.697263,0.140625 c -2.132813,0 -3.94922,0.7910123 -5.449219,2.3730469 -1.500001,1.5820345 -2.25,3.4980435 -2.25,5.7480465 0,2.250004 0.749999,4.166013 2.25,5.748047 1.499999,1.582035 3.316406,2.373047 5.449219,2.373047 1.324218,0 2.566406,-0.345682 3.726562,-1.037109 0.08204,2.414085 -0.925772,3.621094 -3.023437,3.621094 -1.39453,0 -2.701171,-0.01053 -3.919922,-0.0332 -0.878906,-0.0126 -1.476564,0.40926 -1.792969,1.265625 l -0.03516,0.01758 c -0.210948,0.609359 -0.134773,1.177733 0.228516,1.705078 0.386718,0.539061 0.902342,0.808593 1.546875,0.808593 1.359375,0.0126 2.537111,0.02508 3.533203,0.03516 0.164056,-0.02268 0.310541,-0.03516 0.439453,-0.03516 0.175773,0.0126 0.328116,0.02508 0.457031,0.03516 2.121094,0.02268 3.873047,-0.545672 5.255859,-1.705078 1.546875,-1.265638 2.33789,-3.123057 2.373047,-5.572266 h 0.03516 V 9.0371094 c 0,-0.574211 -0.216799,-1.0722699 -0.650391,-1.4941406 -0.421875,-0.4336126 -0.919921,-0.6503907 -1.49414,-0.6503907 l -2.05664,-0.00195 c -0.234381,0 -0.439461,0.087798 -0.615235,0.2636719 C 92.904303,7.3183284 92.822266,7.5116852 92.822266,7.734375 91.638671,7.0429482 90.384765,6.6972656 89.060547,6.6972656 Z m -15.662109,0.03125 c -0.621094,-0.032228 -1.283204,0.00977 -1.986329,0.1269532 -0.820311,0.1405983 -2.074217,0.7089458 -3.761718,1.7050781 V 8.5273438 C 67.650391,8.1406477 67.503905,7.7773551 67.210938,7.4375 66.90625,7.0976449 66.519531,6.9277344 66.050781,6.9277344 H 64.222656 C 63.812502,6.9403328 63.425783,7.1102433 63.0625,7.4375 62.746096,7.7304638 62.587891,8.1054543 62.587891,8.5625 v 12.498047 c 0,0.667968 0.246093,1.248039 0.738281,1.740234 0.316404,0.316397 0.896482,0.47461 1.740234,0.47461 h 0.08789 c 0.832033,0.0126 1.412111,-0.145614 1.740234,-0.47461 0.46875,-0.468762 0.703125,-1.048833 0.703125,-1.740234 V 13.625 13.589844 c 0,-0.03528 0.01758,-0.16418 0.05273,-0.386719 0.11719,-0.585953 0.68555,-1.183608 1.705078,-1.792969 1.13672,-0.691401 2.238281,-0.779199 3.304687,-0.263672 0.984373,0.49217 1.476563,1.576161 1.476563,3.251954 v 6.662109 c 0,0.691401 0.246093,1.271472 0.738281,1.740234 0.328126,0.316397 0.908204,0.47461 1.740234,0.47461 h 0.01758 c 0.843752,0.0126 1.435549,-0.145614 1.775391,-0.47461 0.492188,-0.492195 0.738281,-1.072266 0.738281,-1.740234 L 79.11132,14.695312 C 79.099486,11.98829 78.689328,10.101563 77.880859,9.0351562 76.755858,7.5937579 75.261718,6.8252007 73.398438,6.7285156 Z m 217.160152,0.039063 c -2.13281,0 -3.94921,0.7910123 -5.44921,2.3730469 -1.5,1.5820085 -2.25001,3.4980435 -2.25,5.7480465 0,2.238286 0.75,4.148434 2.25,5.730469 1.5,1.582034 3.3164,2.373047 5.44921,2.373047 0.60936,0 1.48828,-0.374992 2.63672,-1.125 0.28125,-0.187465 0.58009,-0.257804 0.89649,-0.210938 0.32814,0.03502 0.60939,0.181513 0.84375,0.439453 0.5508,0.597669 0.97852,0.896484 1.2832,0.896485 h 2.10937 c 0.28128,0 0.52736,-0.105509 0.73829,-0.316407 0.1993,-0.175874 0.29882,-0.410262 0.29882,-0.703125 V 9.140625 c 0,-0.5156283 -0.18163,-0.9667944 -0.54492,-1.3535156 -0.375,-0.3398551 -0.81445,-0.5097656 -1.31836,-0.5097656 h -1.35351 c -0.51563,0 -0.94335,0.1699105 -1.28321,0.5097656 -0.38672,0.3867212 -0.58007,0.8378873 -0.58007,1.3535156 -0.67969,-1.5820346 -1.92189,-2.3730469 -3.72657,-2.3730464 z m -180.68554,0.017578 c -1.79297,0 -3.0293,0.2402496 -3.70899,0.7207032 -0.35156,0.2343307 -0.70313,0.626906 -1.05468,1.1777344 -0.79688,-1.2187465 -1.62305,-1.8281251 -2.47852,-1.828125 h -0.0879 c -0.66797,0 -1.25977,0.2460859 -1.77539,0.7382812 -0.46875,0.468737 -0.70313,1.0488076 -0.70313,1.7402344 V 20.496094 c 0,0.691427 0.23438,1.271497 0.70313,1.740234 0.46875,0.480479 1.04883,0.720703 1.74023,0.720703 h 0.0527 c 0.6914,0 1.27148,-0.240224 1.74023,-0.720703 0.49219,-0.503912 0.73828,-1.083982 0.73828,-1.740234 v -6.802735 h 0.0352 v -0.0332 c 0,-0.117165 0.0117,-0.246071 0.0352,-0.386718 0.14061,-0.621078 0.59765,-1.20701 1.37109,-1.757813 0.76172,-0.539061 1.68164,-0.72072 2.75976,-0.544922 0.64453,0.09373 1.04884,-0.38088 1.21289,-1.423828 l 0.35157,-1.6347656 c 0.0586,-0.2812473 -0.006,-0.5449181 -0.19336,-0.7910156 -0.16406,-0.2227402 -0.41015,-0.3339844 -0.73828,-0.3339844 z m 133.64648,0.015625 v 0.00195 c -2.21483,-0.046866 -4.11328,0.7265865 -5.69531,2.3203125 -1.57032,1.5937509 -2.35547,3.5156219 -2.35547,5.7656249 0,2.250003 0.83202,4.171874 2.49609,5.765625 1.60547,1.535168 3.28712,2.302734 5.04493,2.302734 2.44921,0.0126 4.37108,-0.362392 5.76562,-1.125 0.96093,-0.527345 1.5,-1.054686 1.61719,-1.582031 l 0.0351,-0.01953 c 0.15245,-0.632819 0.0412,-1.218751 -0.33398,-1.757813 -0.48045,-0.656252 -1.11328,-0.808603 -1.89844,-0.457031 l -1.81054,0.808594 c -2.16799,0.960932 -3.90237,0.849688 -5.20313,-0.333985 -0.35157,-0.33983 -0.69725,-1.042968 -1.03711,-2.109375 h 9.79102 c 0.9375,0 1.40625,-0.492172 1.40625,-1.476562 v -0.01758 c 0.0126,-2.355452 -0.77258,-4.283184 -2.35547,-5.7832032 -1.57032,-1.4999937 -3.39257,-2.2675847 -5.4668,-2.3027344 z m 72.05274,0.125 c -0.84377,-0.012598 -1.43558,0.145589 -1.77539,0.4746094 -0.4922,0.468737 -0.73829,1.0488076 -0.73829,1.7402344 v 7.2773436 0.01953 c 0,0.0703 -0.0177,0.199204 -0.0527,0.386719 -0.15244,0.750009 -0.70907,1.417978 -1.66992,2.003906 -0.94922,0.562494 -2.03907,0.539048 -3.26953,-0.07031 -1.03126,-0.492194 -1.54688,-1.529293 -1.54688,-3.111328 V 8.9140625 c 0,-0.5390614 -0.23439,-1.0429818 -0.70312,-1.5117187 -0.32814,-0.3164221 -0.90821,-0.4746094 -1.74024,-0.4746094 h -0.0527 c -0.83203,-0.012599 -1.4121,0.1455889 -1.74024,0.4746094 -0.46873,0.4804534 -0.70312,0.9843738 -0.70312,1.5117187 v 6.3789065 c 0,2.261719 0.6211,4.18359 1.86328,5.765625 1.44141,1.839849 3.38673,2.501956 5.83594,1.986328 1.03125,-0.210898 2.27343,-0.744101 3.72656,-1.59961 -0.0126,0.375005 0.15735,0.749997 0.50976,1.125 0.30471,0.316397 0.66798,0.47461 1.08985,0.47461 h 1.86328 c 0.46876,0 0.84961,-0.158213 1.14258,-0.47461 0.30468,-0.316421 0.45703,-0.691412 0.45703,-1.125 V 9.140625 c 0,-0.6914268 -0.23436,-1.2714974 -0.70313,-1.7402344 -0.31639,-0.316422 -0.89649,-0.4746093 -1.74023,-0.4746094 z m -201.04102,0.017578 c -0.76172,0 -1.37109,0.3222867 -1.82813,0.9667968 -0.4453,0.6211024 -0.53321,1.3007696 -0.26367,2.0390626 l 3.95508,10.828125 c 0.2461,0.679685 0.66211,1.218749 1.24805,1.617187 0.59765,0.398438 1.25976,0.597656 1.98633,0.597657 h 0.0352 c 0.75,0.0126 1.44141,-0.221765 2.07422,-0.703126 0.63282,-0.480452 1.05469,-1.101555 1.26563,-1.863281 l 1.24804,-4.58789 1.28321,4.58789 c 0.22266,0.785159 0.62696,1.406262 1.21289,1.863281 0.62109,0.468763 1.33008,0.703125 2.12695,0.703126 h 0.0527 c 0.71485,0.0126 1.35938,-0.186621 1.9336,-0.597657 0.60937,-0.410154 1.03711,-0.949219 1.2832,-1.617187 l 3.9375,-10.828125 c 0.28125,-0.738293 0.20508,-1.4179602 -0.22851,-2.0390626 -0.42188,-0.6445101 -1.03711,-0.9667968 -1.84571,-0.9667968 h -0.0703 c -1.06641,0 -1.77539,0.4921971 -2.12695,1.4765625 l -1.72266,4.9921869 c -0.38672,1.511711 -0.77344,3.01756 -1.16016,4.517579 -1.30078,-5.437506 -2.05078,-8.542964 -2.25,-9.3164066 -0.11719,-0.5039117 -0.36915,-0.9140718 -0.75585,-1.2304687 -0.38672,-0.2929638 -0.86133,-0.4394531 -1.42383,-0.4394531 h -0.50977 c -0.46875,0 -0.91406,0.1464893 -1.33594,0.4394531 -0.43359,0.3046803 -0.71484,0.7148405 -0.84375,1.2304687 -0.72656,3.1054616 -1.45312,6.2109196 -2.17968,9.3164066 -0.79688,-2.953147 -1.20118,-4.458996 -1.21289,-4.517579 l -1.74024,-4.9921869 c -0.33984,-0.9843654 -1.04297,-1.4765625 -2.10937,-1.4765625 z m 49.16602,2.703125 c 0.5332,-0.026394 1.0664,0.062551 1.59961,0.2675781 0.93748,0.3632883 1.52929,0.8730443 1.77539,1.5292963 v 5.941407 c -0.0234,1.300787 -0.5918,2.144554 -1.70508,2.53125 -0.5625,0.175874 -1.09571,0.228502 -1.59961,0.158203 -0.94922,0.02268 -1.7461,-0.393345 -2.39063,-1.248047 -0.63281,-0.855458 -0.94922,-1.892557 -0.94922,-3.111328 v -2.109375 c 0,-0.796876 0.14649,-1.517574 0.43946,-2.16211 0.30469,-0.679685 0.71484,-1.136712 1.23047,-1.371093 0.5332,-0.2578147 1.0664,-0.3993877 1.59961,-0.4257814 z m 127.25195,0 c 0.53613,-0.026394 1.07422,0.062551 1.61328,0.2675781 0.9375,0.3632883 1.51173,0.8730443 1.72266,1.5292963 v 5.941407 c 0,1.300787 -0.55665,2.144554 -1.66993,2.53125 -0.55077,0.175874 -1.0957,0.228502 -1.63476,0.158203 -0.91407,0.02268 -1.69336,-0.393345 -2.33789,-1.248047 -0.64454,-0.855458 -0.9668,-1.892557 -0.9668,-3.111328 v -1.160156 c 0,-1.429695 0.14063,-2.466793 0.42188,-3.111329 0.31642,-0.679685 0.73241,-1.136712 1.24804,-1.371093 0.53321,-0.2578147 1.06739,-0.3993877 1.60352,-0.4257814 z M 89.447266,9.8828125 c 0.533203,-0.026331 1.066406,0.066346 1.599609,0.2773435 0.937502,0.33983 1.529298,0.855474 1.775391,1.546875 v 5.765625 c -0.02343,1.335937 -0.591794,2.191403 -1.705078,2.566406 -0.5625,0.175875 -1.095703,0.222766 -1.59961,0.140626 -0.92578,0 -1.716795,-0.42772 -2.373047,-1.283204 -0.64453,-0.855458 -0.966797,-1.88672 -0.966797,-3.09375 v -1.916015 c 0,-0.808592 0.146485,-1.535152 0.439454,-2.179688 0.304686,-0.667968 0.714845,-1.130857 1.230468,-1.388672 0.533203,-0.263659 1.066406,-0.4092158 1.59961,-0.4355465 z m 154.107424,0.048828 c 0.86717,0 1.65235,0.1933825 2.35547,0.5800785 0.8203,0.457045 1.42382,1.365239 1.81054,2.724609 h -7.69922 c 0.19931,-1.01954 0.55674,-1.763685 1.07227,-2.232422 0.79688,-0.714834 1.61717,-1.0722655 2.46094,-1.0722655 z m -20.6543,2.9882815 h 1.10742 c 1.40624,0 2.5254,0.216779 3.35742,0.65039 0.92579,0.468738 1.38868,1.429685 1.38868,2.882813 0,1.277354 -0.45119,2.162127 -1.35352,2.654297 -0.83205,0.433612 -1.89259,0.65039 -3.18164,0.65039 -0.63282,-0.02268 -1.07812,-0.0332 -1.33594,-0.0332 -0.1993,0 -0.36338,-0.06435 -0.49219,-0.193359 -0.15243,-0.129008 -0.22851,-0.277425 -0.22851,-0.441406 v -5.482422 c 0,-0.199307 0.0761,-0.365309 0.22851,-0.494141 0.15245,-0.129008 0.32238,-0.193359 0.50977,-0.193359 z m 132.48438,7.373047 c -3.70757,0.0071 -7.44944,0.294929 -11.21094,0.880859 -31.1393,4.850546 -54.84828,28.725911 -65.34571,60.257813 3.99572,-1.155071 8.22173,-1.732422 12.60938,-1.732422 0.8184,0 1.62424,0.02469 2.42383,0.0625 9.91561,-24.154434 28.97211,-41.547125 52.39258,-45.195313 3.06965,-0.47816 6.13831,-0.708633 9.19336,-0.703125 36.04956,0.06499 70.0365,32.988601 77.26953,79.574219 7.84599,50.53356 -19.17525,95.32877 -58.4668,101.44922 -28.03402,4.36687 -56.0767,-11.93436 -72.69922,-39.98242 -0.14312,-0.0175 -0.28433,-0.0306 -0.42773,-0.0488 -3.21056,-0.31406 -6.23048,-0.83144 -9.05469,-1.5918 l -5.23438,-1.41015 0.5,-2.62305 c -1.20542,0.20709 -2.42396,0.37265 -3.66015,0.48633 17.52731,39.30605 54.08765,64.57034 92.65625,58.5625 48.14729,-7.49992 78.54393,-60.47727 69.7793,-116.92774 C 438.02943,59.311309 399.13403,20.209393 355.38477,20.292969 Z M 39.21875,54.310547 c -5.825567,0 -11.747102,1.002289 -17.763672,3.007812 -6.016572,2.005524 -11.222184,4.727976 -15.6152342,8.166016 1.6235185,14.51617 2.7709454,27.551782 3.4394531,39.107425 0.6685077,11.55563 1.0019531,23.73215 1.0019531,36.52929 0,3.43804 -0.04708,6.87641 -0.142578,10.31446 -0.0955,3.43804 -0.2877156,7.73554 -0.5742189,12.89257 2.5785299,0.38202 5.5873489,0.66839 9.0253909,0.85938 3.438039,0.28649 6.590045,0.38261 9.455078,0.28711 0.573006,-5.92107 1.049638,-12.17605 1.43164,-18.76563 0.382005,-6.58957 0.717403,-13.65658 1.003907,-21.20117 1.050512,-0.2865 2.148908,-0.6219 3.294922,-1.0039 1.241514,-0.38201 3.055831,-1.00182 5.443359,-1.86133 4.011046,5.73006 7.735786,11.93799 11.173828,18.62304 3.533541,6.68508 8.117388,16.5687 13.751953,29.65235 3.915545,-1.05051 7.54418,-2.48236 10.886719,-4.29688 3.342539,-1.81452 6.159145,-3.82105 8.451172,-6.01757 -4.775055,-10.12312 -9.45501,-18.86126 -14.039063,-26.21485 -4.488551,-7.44908 -9.166553,-13.94335 -14.037109,-19.48242 6.398574,-4.10655 11.219759,-8.7865 14.466797,-14.03906 3.342538,-5.252567 5.015625,-11.028961 5.015625,-17.332034 0,-9.072607 -3.152005,-16.188643 -9.455078,-21.345703 C 59.226022,56.936892 50.487883,54.310547 39.21875,54.310547 Z m 170.00977,4.154297 c -5.25257,0 -10.55231,0.621767 -15.9004,1.863281 -5.25253,1.241514 -10.26595,3.006802 -15.04101,5.298828 -0.0955,2.769532 -0.14453,5.682246 -0.14453,8.738281 v 13.179688 c 0,12.033139 0.23929,23.780098 0.7168,35.240238 0.47748,11.36463 1.24245,23.87459 2.29296,37.53125 3.82005,2.29202 7.87827,4.05926 12.17578,5.30078 4.29755,1.24151 8.49892,1.86328 12.60547,1.86328 12.70166,0 23.3973,-3.91696 32.08789,-11.74805 8.7861,-7.83109 13.17969,-17.42834 13.17969,-28.79297 0,-5.53906 -1.81433,-10.26609 -5.44336,-14.18164 -3.62905,-3.91554 -8.73854,-6.638 -15.32812,-8.16601 4.48856,-2.67403 7.87984,-5.920193 10.17187,-9.740238 2.29201,-3.820042 3.4375,-8.11752 3.4375,-12.892578 0,-7.544587 -3.00883,-13.322938 -9.02539,-17.333984 -6.01658,-4.106547 -14.61154,-6.160156 -25.78515,-6.160156 z m -79.14649,1.146484 c -13.46566,0 -24.40059,5.395876 -32.804686,16.1875 -8.4041,10.791627 -12.605469,24.686352 -12.605469,41.685552 0,15.08915 3.102975,27.21861 9.310547,36.38671 6.207578,9.07261 14.755448,13.60938 25.642578,13.60938 7.44909,0 14.08654,-1.76724 19.91211,-5.30078 5.92107,-3.62904 10.88739,-8.97784 14.89844,-16.04492 3.24703,-5.53907 5.73019,-11.93723 7.44922,-19.19532 1.81452,-7.35358 2.7207,-14.65988 2.7207,-21.91797 0,-14.611654 -3.00882,-25.832965 -9.02539,-33.664058 -5.92107,-7.831091 -14.41992,-11.746094 -25.49805,-11.746094 z m 206.15625,1.804688 a 11.353693,11.353693 0 0 0 -11.43164,11.273437 11.353693,11.353693 0 0 0 11.27539,11.431641 11.353693,11.353693 0 0 0 11.43164,-11.273438 11.353693,11.353693 0 0 0 -11.27539,-11.43164 z m 34.03711,1.443359 c -0.85378,0.03263 -1.71183,0.166068 -2.55859,0.412109 -6.02147,1.74951 -8.09389,9.576704 -7.54102,15.017578 0,0 5.36138,-3.137201 11.38281,-4.886718 6.02147,-1.749362 10.50977,-1.96875 10.50977,-1.96875 -1.42152,-4.892444 -6.03293,-8.377495 -10.94141,-8.574219 -0.28318,-0.01135 -0.56697,-0.01088 -0.85156,0 z m -333.779296,4.34375 c 5.25256,0 9.263671,1.671133 12.033203,5.013672 2.865035,3.247037 4.296875,7.830882 4.296875,13.751953 0,6.780578 -1.814315,12.319634 -5.44336,16.61719 -3.629039,4.20205 -9.215178,7.35405 -16.759765,9.45508 v -1.86133 -2.00586 c 0,-5.15706 -0.09612,-10.600014 -0.287109,-16.33008 -0.191003,-5.825567 -0.524448,-13.657525 -1.001954,-23.494141 1.241515,-0.382014 2.436018,-0.668382 3.582032,-0.859375 1.241514,-0.190992 2.434065,-0.287109 3.580078,-0.287109 z m 170.154296,4.011719 c 5.25256,0 9.26367,1.19255 12.0332,3.580078 2.76954,2.292026 4.1543,5.636244 4.1543,10.029297 0,5.730066 -1.95751,10.264883 -5.87305,13.607422 -3.91556,3.247039 -9.88415,5.396749 -17.90625,6.447269 0.19102,-6.971592 0.42836,-13.036304 0.71485,-18.193363 0.28651,-5.252563 0.62189,-10.169853 1.0039,-14.753906 1.14601,-0.191008 2.19538,-0.334192 3.15039,-0.429688 1.05054,-0.190992 1.95867,-0.287109 2.72266,-0.287109 z m -80.86523,3.007812 c 5.73006,0 9.88436,2.912712 12.46289,8.738282 2.57853,5.730064 3.86718,14.94678 3.86718,27.648442 0,13.27463 -1.62405,23.68392 -4.87109,31.22851 -3.15154,7.54459 -7.68635,11.31641 -13.60742,11.31641 -5.34806,0 -9.50236,-3.53253 -12.46289,-10.59961 -2.96054,-7.06708 -4.44141,-16.47407 -4.44141,-28.22071 0,-12.12864 1.71821,-21.82199 5.15625,-29.080074 3.43804,-7.353587 8.07092,-11.03125 13.89649,-11.03125 z m 257.93359,5.400391 c -3.85436,0.696053 -7.79926,1.743887 -11.83398,3.144531 -4.04943,1.30628 -7.40175,2.745698 -10.05665,4.31836 3.38219,8.075783 6.2233,16.090802 8.52344,24.044922 2.30011,7.95412 4.0525,15.79903 5.25586,23.53711 2.15728,13.87192 2.58566,25.01813 1.28516,33.43555 -1.20616,8.40272 -4.02765,12.94893 -8.46289,13.63867 -3.26662,0.50799 -6.225,-1.67416 -8.87696,-6.51563 -3.90806,1.11026 -15.27182,4.07276 -23.01953,3 1.76973,3.72994 3.77219,6.92763 6.01758,9.56836 6.37255,7.41745 14.60784,10.34174 24.70508,8.77149 13.21134,-2.05455 22.24613,-9.20988 27.10547,-21.4668 4.93901,-12.36597 5.68503,-29.63825 2.23633,-51.81445 -0.99791,-6.41695 -2.51138,-13.04252 -4.54102,-19.87891 -1.94993,-6.945437 -4.72927,-14.872789 -8.33789,-23.783203 z m -92.28125,5.916015 c -7.73558,0 -14.56329,1.957502 -20.48438,5.873047 -5.92103,3.820044 -9.64581,8.500003 -11.17382,14.039061 1.33699,3.15154 3.53379,5.6347 6.58984,7.44922 3.05603,1.71903 6.922,2.62716 11.60156,2.72266 0.0955,-5.25256 1.24292,-9.59907 3.43946,-13.03711 2.19653,-3.438046 4.86996,-5.156252 8.02148,-5.156252 3.15155,0 5.44444,1.861404 6.87695,5.585932 1.43252,3.72455 2.14844,9.93245 2.14844,18.62305 v 1.14649 1.00195 c -1.71903,-0.0955 -3.39016,-0.14258 -5.01367,-0.14258 -1.52801,-0.0955 -3.29524,-0.14258 -5.30078,-0.14258 -10.69612,0 -18.76541,1.67116 -24.20899,5.01367 -5.34805,3.24704 -8.02343,8.16434 -8.02343,14.75391 0,6.30308 2.19679,11.3655 6.58984,15.18555 4.48857,3.72454 10.4101,5.58594 17.76367,5.58594 2.76954,0 5.39588,-0.28637 7.87891,-0.85938 2.48305,-0.57301 4.7269,-1.43211 6.73242,-2.57812 -0.19102,0.764 -0.38127,1.62311 -0.57227,2.57812 -0.0955,0.95501 -0.33478,2.43588 -0.71679,4.44141 2.48302,0.6685 5.20548,1.14513 8.16601,1.43164 2.96056,0.382 5.82424,0.57422 8.59375,0.57422 2.48305,-9.83662 4.53665,-19.95952 6.16016,-30.36914 1.71903,-10.50513 2.57812,-18.81371 2.57812,-24.92579 0,-9.4546 -2.33801,-16.617721 -7.01757,-21.488277 -4.67956,-4.870556 -11.55631,-7.306641 -20.62891,-7.306641 z m 52.16797,11.439454 c -1.246,0.03084 -2.61332,0.161432 -4.09961,0.392578 -1.79293,0.278815 -3.65802,0.713418 -5.5957,1.304687 -1.93769,0.591281 -3.63085,1.192411 -5.08204,1.804689 -1.21223,4.63438 -1.84389,12.0777 -1.89257,22.33008 0.0457,10.23769 0.78837,19.98056 2.22656,29.22851 1.20287,7.73487 2.8435,14.46824 4.91016,20.22461 6.99874,0.81744 17.87031,-1.73938 22.90234,-3.07617 -2.15702,-6.17804 -4.07032,-14.55805 -5.72852,-25.2207 -1.10063,-7.07752 -1.88064,-14.59117 -2.34375,-22.54102 -0.36888,-7.96452 -0.35375,-15.94213 0.0469,-23.929686 -1.11141,-0.310413 -2.49046,-0.482014 -4.13867,-0.515625 -0.38848,-0.01208 -0.78975,-0.01223 -1.20508,-0.002 z M 212.52344,116.625 c 5.63457,0 9.83593,1.24158 12.60547,3.72461 2.86503,2.48303 4.29882,6.16069 4.29882,11.03125 0,5.92107 -2.14971,11.22084 -6.44726,15.90039 -4.20205,4.58406 -9.21545,6.87695 -15.04102,6.87695 -1.43251,0 -2.91339,-0.19221 -4.4414,-0.57422 -1.43252,-0.382 -2.86436,-0.95474 -4.29688,-1.71875 -0.19102,-3.34254 -0.33419,-6.73188 -0.42969,-10.16992 v -10.88867 -5.72852 -5.875 c 2.38753,-0.76398 4.77459,-1.38382 7.16211,-1.86132 2.38753,-0.47751 4.58433,-0.7168 6.58985,-0.7168 z m 85.64648,16.47461 c -0.0955,2.57853 -0.28578,5.25195 -0.57226,8.02148 -0.28652,2.76954 -0.66898,5.87446 -1.14649,9.3125 -1.62351,0.95501 -3.24756,1.67094 -4.87109,2.14844 -1.62351,0.47751 -3.34173,0.71484 -5.15625,0.71485 -2.86503,0 -5.10892,-0.763 -6.73242,-2.29102 -1.52804,-1.52802 -2.29297,-3.67773 -2.29297,-6.44727 0,-4.01104 1.72014,-6.92376 5.1582,-8.73828 3.43804,-1.91001 8.64172,-2.8162 15.61328,-2.7207 z M 89.164062,181.11914 c -1.69077,0 -3.340923,0.98931 -4.949218,2.96875 -1.608295,1.97944 -2.866195,4.61891 -3.773438,7.91797 0.04122,-1.11343 0.124331,-2.3095 0.248047,-3.58789 0.123714,-1.31963 0.309208,-2.98909 0.556641,-5.00977 -0.536088,-0.12371 -0.887771,-0.18554 -1.052735,-0.18554 -0.164943,-0.0412 -0.329176,-0.0625 -0.49414,-0.0625 -0.659813,0 -1.154468,0.0213 -1.484375,0.0625 -0.288665,0.0412 -0.557255,0.12237 -0.804688,0.24609 -0.288657,6.06203 -0.267405,11.91871 0.0625,17.56836 0.329908,5.60841 0.988796,11.09214 1.978516,16.45312 0.206198,0.0412 0.412956,0.0625 0.61914,0.0625 0.206191,0.0412 0.45352,0.0412 0.742188,0 0.329905,-0.0412 0.619754,-0.10307 0.867188,-0.18554 0.288671,-0.0412 0.536001,-0.10308 0.742187,-0.18555 -0.536098,-3.50526 -0.968923,-6.5988 -1.298828,-9.2793 -0.288668,-2.68049 -0.495424,-5.1325 -0.619141,-7.35937 0.948483,-4.90736 2.18512,-8.86656 3.710938,-11.87695 1.525818,-3.05164 3.052307,-4.57813 4.578125,-4.57813 0.701052,0 1.21697,0.33043 1.546875,0.99023 0.329907,0.61858 0.49414,1.62915 0.49414,3.03126 0,0.57732 -0.02125,1.17439 -0.0625,1.79296 -0.04125,0.61858 -0.103078,1.25816 -0.185546,1.91797 0.742288,0 1.298774,-0.0213 1.669921,-0.0625 0.412382,-0.0412 0.764067,-0.10308 1.052735,-0.18554 0.04122,-0.65982 0.0818,-1.2994 0.123047,-1.91797 0.04125,-0.61858 0.0625,-1.19437 0.0625,-1.73047 0,-2.39183 -0.351683,-4.12507 -1.052735,-5.19727 -0.659812,-1.07219 -1.751526,-1.60742 -3.277344,-1.60742 z m 170.832028,0 c -1.69076,0 -3.34094,0.98931 -4.94921,2.96875 -1.60829,1.97944 -2.86423,4.61891 -3.77149,7.91797 0.0413,-1.11343 0.12238,-2.3095 0.24609,-3.58789 0.12372,-1.31963 0.30922,-2.98909 0.55664,-5.00977 -0.536,-0.12371 -0.88574,-0.18554 -1.05078,-0.18554 -0.16486,-0.0412 -0.3291,-0.0625 -0.49414,-0.0625 -0.65983,0 -1.15643,0.0213 -1.48632,0.0625 -0.28866,0.0412 -0.55531,0.12237 -0.80274,0.24609 -0.28858,6.06203 -0.26935,11.91871 0.0606,17.56836 0.32993,5.60841 0.99076,11.09214 1.98047,16.45312 0.20626,0.0412 0.41303,0.0625 0.61914,0.0625 0.20621,0.0412 0.45353,0.0412 0.74218,0 0.32991,-0.0412 0.61781,-0.10307 0.86524,-0.18554 0.28875,-0.0412 0.53608,-0.10308 0.74219,-0.18555 -0.53609,-3.50526 -0.9689,-6.5988 -1.29883,-9.2793 -0.28866,-2.68049 -0.49543,-5.1325 -0.61914,-7.35937 0.94848,-4.90736 2.18707,-8.86656 3.71289,-11.87695 1.52582,-3.05164 3.05035,-4.57813 4.57617,-4.57813 0.70105,0 1.21697,0.33043 1.54688,0.99023 0.32989,0.61858 0.49414,1.62915 0.49414,3.03126 0,0.57732 -0.0192,1.17439 -0.0605,1.79296 -0.0413,0.61858 -0.10315,1.25816 -0.18555,1.91797 0.7423,0 1.29877,-0.0213 1.66992,-0.0625 0.41238,-0.0412 0.76211,-0.10308 1.05078,-0.18554 0.0411,-0.65982 0.0817,-1.2994 0.12305,-1.91797 0.0413,-0.61858 0.0625,-1.19437 0.0625,-1.73047 0,-2.39183 -0.34973,-4.12507 -1.05078,-5.19727 -0.65983,-1.07219 -1.75348,-1.60742 -3.2793,-1.60742 z m -196.240231,1.36133 c -1.773248,0 -3.46397,0.65889 -5.072265,1.97851 -1.608295,1.27839 -3.113524,3.21644 -4.515625,5.81446 -0.494861,-1.48458 -1.236843,-2.57629 -2.226563,-3.27735 -0.94848,-0.74229 -2.185117,-1.11328 -3.710937,-1.11328 -1.690769,0 -3.298401,0.51397 -4.824219,1.54492 -1.484581,1.03096 -2.846834,2.53619 -4.083984,4.51563 0.08249,-1.48458 0.165578,-2.84488 0.248046,-4.08203 0.08247,-1.23715 0.184878,-2.33082 0.308594,-3.2793 -0.288667,-0.0825 -0.576566,-0.12305 -0.865234,-0.12305 -0.288668,-0.0412 -0.68092,-0.0625 -1.175781,-0.0625 -0.412385,0 -0.804637,0.0425 -1.175782,0.125 -0.371144,0.0825 -0.720873,0.20613 -1.050781,0.3711 0,4.90736 0.08308,10.8046 0.248047,17.6914 0.206198,6.88681 0.411003,12.41306 0.617187,16.57813 0.494859,0 1.010777,-0.0425 1.546876,-0.125 0.577336,-0.0825 1.052683,-0.20613 1.423828,-0.37109 -0.164964,-1.11344 -0.288625,-2.9684 -0.371094,-5.56641 -0.08247,-2.63925 -0.125,-5.05265 -0.125,-7.23828 0,-1.36087 0.02125,-2.84483 0.0625,-4.45313 0.04122,-1.60829 0.0818,-3.23718 0.123047,-4.88672 0.94848,-2.30934 2.187072,-4.12373 3.71289,-5.44336 1.525818,-1.36085 3.071615,-2.04101 4.638672,-2.04101 1.484581,0 2.535725,0.61832 3.154297,1.85547 0.659815,1.23715 0.990234,3.29887 0.990234,6.18554 0,2.55678 -0.164233,5.21751 -0.49414,7.98047 -0.288668,2.76297 -0.825846,6.24682 -1.609375,10.45313 0.329907,0.16494 0.783993,0.32918 1.361328,0.49414 0.618575,0.12372 1.196324,0.2068 1.732422,0.24805 0.618575,-2.35059 1.175061,-5.36104 1.669922,-9.03125 0.494858,-3.67021 0.742187,-6.96857 0.742187,-9.89649 0,-0.65981 -0.02125,-1.27813 -0.0625,-1.85547 0,-0.57733 -0.04058,-1.13577 -0.123047,-1.67187 1.113434,-2.59802 2.390644,-4.5979 3.833985,-6 1.443341,-1.44334 2.886734,-2.16406 4.330078,-2.16406 1.484578,0 2.537675,0.61831 3.15625,1.85546 0.659812,1.23715 0.988281,3.29887 0.988281,6.18555 0,3.83517 -0.266636,7.64944 -0.802734,11.44336 -0.494859,3.75269 -1.300629,7.85681 -2.414063,12.31055 0.329905,0.16495 0.78399,0.30792 1.361328,0.43164 0.618575,0.16494 1.196324,0.2693 1.732422,0.31055 0.98972,-3.67022 1.814797,-7.73181 2.47461,-12.18555 0.701052,-4.45374 1.050781,-8.47477 1.050781,-12.0625 0,-3.95888 -0.535225,-6.84567 -1.607422,-8.66016 -1.072197,-1.85572 -2.805442,-2.7832 -5.197266,-2.7832 z m 170.833981,0 c -1.77325,0 -3.46397,0.65889 -5.07226,1.97851 -1.60832,1.27839 -3.11352,3.21644 -4.51563,5.81446 -0.49484,-1.48458 -1.23683,-2.57629 -2.22656,-3.27735 -0.94848,-0.74229 -2.18707,-1.11328 -3.71289,-1.11328 -1.69076,0 -3.2984,0.51397 -4.82422,1.54492 -1.48457,1.03096 -2.84486,2.53619 -4.08203,4.51563 0.0827,-1.48458 0.1637,-2.84488 0.24609,-4.08203 0.0824,-1.23715 0.18683,-2.33082 0.31055,-3.2793 -0.28865,-0.0825 -0.57851,-0.12305 -0.86719,-0.12305 -0.28865,-0.0412 -0.67897,-0.0625 -1.17382,-0.0625 -0.4124,0 -0.80466,0.0425 -1.17579,0.125 -0.37115,0.0825 -0.72283,0.20613 -1.05273,0.3711 0,4.90736 0.083,10.8046 0.24805,17.6914 0.20628,6.88681 0.41303,12.41306 0.61914,16.57813 0.49484,0 1.01076,-0.0425 1.54687,-0.125 0.57734,-0.0825 1.05073,-0.20613 1.42188,-0.37109 -0.16504,-1.11344 -0.2887,-2.9684 -0.3711,-5.56641 -0.0824,-2.63925 -0.12304,-5.05265 -0.12304,-7.23828 0,-1.36087 0.0192,-2.84483 0.0605,-4.45313 0.0411,-1.60829 0.0837,-3.23718 0.125,-4.88672 0.94849,-2.30934 2.18512,-4.12373 3.71094,-5.44336 1.52582,-1.36085 3.0716,-2.04101 4.63867,-2.04101 1.48458,0 2.53767,0.61832 3.15625,1.85547 0.65981,1.23715 0.98828,3.29887 0.98828,6.18554 0,2.55678 -0.16423,5.21751 -0.49414,7.98047 -0.28868,2.76297 -0.82585,6.24682 -1.60937,10.45313 0.3299,0.16494 0.78399,0.32918 1.36133,0.49414 0.61858,0.12372 1.19633,0.2068 1.73242,0.24805 0.61858,-2.35059 1.17505,-5.36104 1.66992,-9.03125 0.49487,-3.67021 0.74219,-6.96857 0.74219,-9.89649 0,-0.65981 -0.0212,-1.27813 -0.0625,-1.85547 0,-0.57733 -0.0407,-1.13577 -0.12305,-1.67187 1.11342,-2.59802 2.39259,-4.5979 3.83594,-6 1.44332,-1.44334 2.88673,-2.16406 4.33008,-2.16406 1.48457,0 2.53571,0.61831 3.15429,1.85546 0.65981,1.23715 0.99024,3.29887 0.99024,6.18555 0,3.83517 -0.2686,7.64944 -0.80469,11.44336 -0.49487,3.75269 -1.29869,7.85681 -2.41211,12.31055 0.3299,0.16495 0.78399,0.30792 1.36133,0.43164 0.61856,0.16494 1.19435,0.2693 1.73047,0.31055 0.9897,-3.67022 1.81478,-7.73181 2.47461,-12.18555 0.70105,-4.45374 1.05273,-8.47477 1.05273,-12.0625 0,-3.95888 -0.53717,-6.84567 -1.60937,-8.66016 -1.07221,-1.85572 -2.80351,-2.7832 -5.19532,-2.7832 z m -102.45507,0.0606 c -2.4743,0 -4.41235,0.72267 -5.81446,2.16601 -1.36086,1.40211 -2.04101,3.36142 -2.04101,5.87695 0,1.93821 0.45213,3.69076 1.35937,5.25782 0.94848,1.56705 2.90781,3.46258 5.87695,5.68945 2.59802,1.97944 4.28874,3.60833 5.07227,4.88672 0.82477,1.23715 1.23828,2.61871 1.23828,4.14453 0,1.89696 -0.47534,3.4022 -1.42383,4.51562 -0.90724,1.11344 -2.16514,1.66993 -3.77343,1.66993 -2.06192,0 -3.65024,-0.82312 -4.76368,-2.47266 -1.11342,-1.64953 -1.62739,-3.93926 -1.54492,-6.86719 -0.5361,-0.0412 -1.05201,-0.02 -1.54687,0.0625 -0.49486,0.0412 -1.05135,0.14363 -1.66992,0.3086 0,3.50525 0.86564,6.33021 2.59765,8.47461 1.73201,2.14439 4.00048,3.21679 6.80469,3.21679 2.55678,0 4.63975,-0.90817 6.24805,-2.72265 1.64953,-1.81449 2.47265,-4.10227 2.47265,-6.86524 0,-1.77325 -0.45213,-3.38088 -1.35937,-4.82422 -0.86601,-1.48458 -2.72292,-3.27966 -5.56836,-5.38281 -2.72173,-2.02068 -4.51486,-3.69014 -5.38086,-5.00976 -0.82477,-1.36087 -1.23828,-2.84483 -1.23828,-4.45313 0,-1.56705 0.37294,-2.78438 1.11523,-3.65039 0.78353,-0.86601 1.85398,-1.29883 3.21485,-1.29883 1.56705,0 2.78438,0.57775 3.65039,1.73242 0.90724,1.15468 1.52557,2.98837 1.85546,5.50391 0.45363,-0.0825 0.90771,-0.18488 1.36133,-0.30859 0.49486,-0.12373 0.96826,-0.26866 1.42188,-0.4336 -0.5361,-3.25783 -1.46358,-5.60744 -2.78321,-7.05078 -1.27837,-1.44334 -3.07151,-2.16601 -5.38085,-2.16601 z m 33.72656,0.99023 c -3.5465,0 -6.47386,1.99988 -8.78321,6 -2.30933,4.00012 -3.46484,9.07229 -3.46484,15.2168 0,4.4125 0.84634,7.83647 2.53711,10.26953 1.69077,2.39182 4.12348,3.58789 7.29883,3.58789 2.43306,0 4.70153,-0.8676 6.80469,-2.59961 2.10315,-1.77325 3.48471,-3.9161 4.14453,-6.43164 -0.28867,-0.37114 -0.64036,-0.6803 -1.05274,-0.92774 -0.37114,-0.24743 -0.80397,-0.47545 -1.29882,-0.68164 -0.98972,2.55678 -2.18579,4.51609 -3.5879,5.87696 -1.36086,1.31962 -2.86609,1.97851 -4.51562,1.97851 -2.22687,0 -3.95816,-1.01057 -5.19531,-3.03125 -1.19591,-2.02067 -1.79493,-4.80311 -1.79493,-8.34961 0,-4.7424 0.88691,-8.94893 2.66016,-12.61914 1.77325,-3.67021 3.89679,-5.50586 6.3711,-5.50586 1.60828,0 2.82562,0.74198 3.65039,2.22657 0.82476,1.44334 1.23632,3.60941 1.23632,6.49609 0.65982,0 1.27814,-0.0618 1.85547,-0.18555 0.61858,-0.12371 1.21759,-0.33047 1.79492,-0.61914 0,-3.3403 -0.76324,-5.9585 -2.28906,-7.85547 -1.52582,-1.89696 -3.64936,-2.8457 -6.37109,-2.8457 z m -64.10547,0.67969 c -1.31963,4.12383 -2.185275,7.40287 -2.597657,9.83594 -0.371144,2.39181 -0.556641,4.99071 -0.556641,7.79492 10e-7,4.24754 0.803817,7.6483 2.412108,10.20508 1.64953,2.51552 3.81365,3.77343 6.49414,3.77343 1.44334,0 2.76308,-0.41156 3.95899,-1.23633 1.23715,-0.82476 2.33081,-2.04209 3.27929,-3.65039 -0.28866,5.4847 -1.03065,9.62939 -2.22656,12.4336 -1.19591,2.84544 -2.78423,4.26953 -4.76367,4.26953 -1.56706,0 -2.78439,-0.68211 -3.65039,-2.04297 -0.86601,-1.31963 -1.5249,-3.52431 -1.97852,-6.61719 -0.5361,0.16495 -1.09258,0.36976 -1.66992,0.61719 -0.536096,0.24743 -1.092585,0.55659 -1.669921,0.92773 0.536099,3.05164 1.565981,5.46504 3.091801,7.23829 1.52581,1.77324 3.4233,2.66015 5.6914,2.66015 3.29907,0 5.91727,-2.2279 7.85547,-6.68164 1.9382,-4.4125 2.9082,-10.76188 2.9082,-19.05078 0,-3.13411 -0.20675,-6.49625 -0.61914,-10.08398 -0.37114,-3.62898 -0.8658,-6.80367 -1.48437,-9.5254 -0.65981,-0.16492 -1.36123,-0.14367 -2.10352,0.0625 -0.70105,0.16496 -1.29811,0.49343 -1.79297,0.98829 0.90725,2.84544 1.54488,5.77475 1.91602,8.78515 0.37114,2.96916 0.57789,6.45301 0.61914,10.45313 -0.86601,2.43306 -1.85532,4.26871 -2.96875,5.50586 -1.11344,1.19591 -2.33076,1.79297 -3.65039,1.79297 -1.89696,0 -3.4022,-0.98932 -4.51562,-2.96875 -1.0722,-2.02068 -1.60743,-4.66014 -1.60743,-7.91797 0,-2.72173 0.1855,-5.25879 0.55664,-7.60938 0.41239,-2.39182 1.13311,-5.46411 2.16407,-9.2168 -0.32991,-0.16494 -0.80331,-0.30792 -1.42188,-0.43164 -0.57734,-0.16493 -1.13382,-0.2693 -1.66992,-0.31054 z m 81.06641,0 c -1.31963,4.12383 -2.18528,7.40287 -2.59766,9.83594 -0.37115,2.39181 -0.55664,4.99071 -0.55664,7.79492 0,4.24754 0.80381,7.6483 2.41211,10.20508 1.64953,2.51552 3.81561,3.77343 6.49609,3.77343 1.44335,0 2.76307,-0.41156 3.95899,-1.23633 1.23714,-0.82476 2.32885,-2.04209 3.27734,-3.65039 -0.28868,5.4847 -1.03067,9.62939 -2.22656,12.4336 -1.19592,2.84544 -2.78424,4.26953 -4.76367,4.26953 -1.56706,0 -2.78244,-0.68211 -3.64844,-2.04297 -0.86601,-1.31963 -1.52685,-3.52431 -1.98047,-6.61719 -0.5361,0.16495 -1.09258,0.36976 -1.66992,0.61719 -0.5361,0.24743 -1.09259,0.55659 -1.66992,0.92773 0.53609,3.05164 1.56793,5.46504 3.09375,7.23829 1.52581,1.77324 3.42134,2.66015 5.68945,2.66015 3.29907,0 5.91923,-2.2279 7.85742,-6.68164 1.93819,-4.4125 2.90625,-10.76188 2.90625,-19.05078 0,-3.13411 -0.20677,-6.49625 -0.61914,-10.08398 -0.37115,-3.62898 -0.8658,-6.80367 -1.48437,-9.5254 -0.65981,-0.16492 -1.36125,-0.14367 -2.10352,0.0625 -0.70105,0.16496 -1.2981,0.49343 -1.79297,0.98829 0.90724,2.84544 1.54682,5.77475 1.91797,8.78515 0.37105,2.96916 0.57586,6.45301 0.61719,10.45313 -0.86599,2.43306 -1.8553,4.26871 -2.96875,5.50586 -1.11343,1.19591 -2.32881,1.79297 -3.64844,1.79297 -1.89696,0 -3.40219,-0.98932 -4.51563,-2.96875 -1.07219,-2.02068 -1.60937,-4.66014 -1.60937,-7.91797 0,-2.72173 0.1855,-5.25879 0.55664,-7.60938 0.41238,-2.39182 1.13506,-5.46411 2.16602,-9.2168 -0.32991,-0.16494 -0.80526,-0.30792 -1.42383,-0.43164 -0.57734,-0.16493 -1.13383,-0.2693 -1.66992,-0.31054 z m -161.068364,0.37109 c -3.628974,0 -6.741829,1.91874 -9.339844,5.75391 -2.5567763,3.79392 -3.835937,8.04102 -3.835937,12.74218 0,4.41251 0.9081684,7.93888 2.722656,10.57813 1.814486,2.63925 4.309025,3.95898 7.484375,3.95898 2.350587,0 4.702151,-0.94874 7.052735,-2.8457 2.350584,-1.9382 3.896383,-4.10427 4.638671,-6.49609 -0.371143,-0.41239 -0.825229,-0.76212 -1.361328,-1.05078 -0.494858,-0.28868 -0.989514,-0.47418 -1.484375,-0.55664 -0.618575,2.2681 -1.814644,4.20615 -3.58789,5.81445 -1.732012,1.56706 -3.505827,2.35156 -5.320313,2.35156 -2.061916,0 -3.710115,-1.05309 -4.947265,-3.15625 -1.195911,-2.14439 -1.794922,-4.92683 -1.794922,-8.34961 v -1.42383 c 0.04125,-0.49485 0.103077,-0.98951 0.185547,-1.48437 1.402104,0.49486 2.845499,0.88711 4.330078,1.17578 1.484581,0.24743 2.949237,0.37109 4.392578,0.37109 1.484581,0 2.761788,-0.0618 3.833984,-0.18554 1.072197,-0.12371 2.001631,-0.30921 2.785156,-0.55664 0.494859,-1.23715 0.865849,-2.55689 1.113282,-3.95899 0.288667,-1.4021 0.43164,-2.82424 0.43164,-4.26758 0,-2.59801 -0.658888,-4.64042 -1.978515,-6.125 -1.278388,-1.52581 -3.052206,-2.28906 -5.320313,-2.28906 z m 250.492184,0.55859 c -0.28865,0 -0.57655,0.0406 -0.86523,0.12305 -0.24743,0.0413 -0.49476,0.10308 -0.74219,0.18555 -0.70105,1.31962 -1.2788,3.4026 -1.73242,6.24805 -0.45362,2.8042 -0.67969,5.64847 -0.67969,8.53515 0,5.69089 0.69947,10.02107 2.10156,12.99024 1.44336,2.92792 3.54759,4.39257 6.31055,4.39257 3.42279,0 6.00042,-1.93805 7.73242,-5.81445 1.77326,-3.8764 2.65821,-9.46449 2.65821,-16.76367 0,-1.31963 -0.0618,-2.6181 -0.18555,-3.89649 -0.0826,-1.31961 -0.22553,-2.43455 -0.43164,-3.34179 -0.53609,0 -1.15442,0.0618 -1.85547,0.18555 -0.65983,0.1237 -1.21826,0.2899 -1.67187,0.49609 0.16488,0.70105 0.33105,1.91643 0.49609,3.64844 0.16504,1.73201 0.24805,3.42273 0.24805,5.07226 0,5.64965 -0.55846,10.0011 -1.67188,13.05274 -1.11345,3.05163 -2.72106,4.57812 -4.82422,4.57812 -1.732,0 -3.11357,-1.31973 -4.14453,-3.95898 -0.98973,-2.63925 -1.48437,-5.98013 -1.48437,-10.02149 0,-3.13411 0.16421,-5.98033 0.49414,-8.53711 0.37112,-2.59801 0.88704,-4.88579 1.54687,-6.86523 -0.20618,-0.0825 -0.43225,-0.1443 -0.67969,-0.18555 -0.20628,-0.0825 -0.41303,-0.12305 -0.61914,-0.12305 z m -250.800778,2.28711 c 1.484581,0 2.556985,0.43283 3.216797,1.29883 0.659815,0.82477 0.990235,2.22759 0.990235,4.20703 0,0.86601 -0.08308,1.81475 -0.248047,2.84571 -0.164954,1.03095 -0.392973,2.14393 -0.681641,3.33984 -0.24743,0.0825 -0.65899,0.16558 -1.236328,0.24805 -0.536098,0.0412 -1.052016,0.0625 -1.546875,0.0625 -1.938202,0 -3.648234,-0.12562 -5.132812,-0.37305 -1.484581,-0.24743 -2.866144,-0.63773 -4.144532,-1.17383 0.74229,-3.09287 1.917096,-5.60867 3.525391,-7.54687 1.608295,-1.9382 3.360851,-2.90821 5.257812,-2.90821 z m 126.558598,25.17579 c -0.78353,0 -1.62792,0.10436 -2.53516,0.31054 v 0.99024 c 0.0412,0.28866 0.0818,0.7408 0.12305,1.35937 v 0.99024 c 0.0412,0.24743 0.0625,0.4735 0.0625,0.67968 0.70105,0.0825 1.3812,0.125 2.04101,0.125 0.70105,0 1.4643,-0.0425 2.28907,-0.125 0.0825,-0.57733 0.14429,-1.15313 0.18554,-1.73047 0.0825,-0.57732 0.1443,-1.40241 0.18555,-2.4746 -0.78353,-0.12372 -1.56804,-0.16625 -2.35156,-0.125 z m 264.96484,35.69921 c -0.75583,0 -1.40142,0.2686 -1.93945,0.80665 -0.52526,0.53803 -0.78907,1.17886 -0.78907,1.92187 v 5.7832 c -1.29385,-0.74301 -2.66374,-1.11523 -4.11132,-1.11523 -2.34432,0 -4.33011,0.86628 -5.95703,2.5957 -1.63977,1.72942 -2.45899,3.8236 -2.45899,6.2832 0,2.44682 0.81922,4.53426 2.45899,6.26368 1.62692,1.72942 3.61271,2.59375 5.95703,2.59375 1.44758,0 2.81747,-0.37027 4.11132,-1.11328 -0.0257,0.28183 0.0781,0.53698 0.3086,0.76757 0.2051,0.23061 0.47369,0.34571 0.80664,0.34571 h 3.28515 c 0.30746,0 0.57604,-0.1151 0.80665,-0.34571 0.2434,-0.23057 0.35382,-0.48573 0.32812,-0.76757 V 251.0313 c 0,-0.74301 -0.27054,-1.38384 -0.80859,-1.92187 -0.53803,-0.53805 -1.17885,-0.80665 -1.92188,-0.80665 z m -281.39453,0.15235 c -0.74301,0 -1.39728,0.25711 -1.96094,0.76953 -0.51242,0.53804 -0.76758,1.18559 -0.76758,1.94141 v 19.69531 c 0,0.76863 0.25516,1.41617 0.76758,1.9414 0.51242,0.51243 1.15996,0.76758 1.94141,0.76758 h 0.0195 c 0.75582,0 1.40141,-0.25515 1.93945,-0.76758 0.53804,-0.52523 0.8086,-1.17277 0.8086,-1.9414 v -8.12891 -0.0371 c 0,-0.19215 0.0182,-0.33414 0.0566,-0.42383 0.14092,-0.79425 0.7501,-1.51854 1.82617,-2.17187 1.24262,-0.74301 2.44557,-0.83797 3.61133,-0.28711 1.1017,0.53804 1.65234,1.79281 1.65234,3.76562 v 7.32227 c 0,0.74301 0.25711,1.37711 0.76953,1.90234 0.51242,0.51243 1.14653,0.76758 1.90234,0.76758 h 0.0586 c 0.75582,0 1.38992,-0.25515 1.90234,-0.76758 0.53805,-0.52523 0.80664,-1.15933 0.80664,-1.90234 l -0.0391,-6.24609 c 0,-2.72864 -0.6792,-4.95808 -2.03711,-6.6875 -1.3451,-1.74223 -3.47092,-2.4598 -6.37891,-2.15235 -1.28104,0.14093 -2.63944,0.847 -4.07421,2.11524 l -0.0566,-6.80274 c 0,-0.75582 -0.25711,-1.38992 -0.76954,-1.90234 -0.53804,-0.51242 -1.18558,-0.76953 -1.9414,-0.76953 z m 127.89844,0 c -0.74301,0 -1.39531,0.25711 -1.95899,0.76953 -0.51243,0.53804 -0.76953,1.18559 -0.76953,1.94141 v 19.69531 c 0,0.76863 0.2571,1.41617 0.76953,1.9414 0.51243,0.51243 1.15998,0.76758 1.94141,0.76758 h 0.0176 c 0.7558,0 1.40335,-0.25515 1.9414,-0.76758 0.53803,-0.52523 0.80664,-1.17277 0.80664,-1.9414 v -8.12891 -0.0371 c 0,-0.19215 0.02,-0.33414 0.0586,-0.42383 0.14085,-0.79425 0.74808,-1.51854 1.82422,-2.17187 1.24263,-0.74301 2.44752,-0.83797 3.61328,-0.28711 1.1017,0.53804 1.65234,1.79281 1.65234,3.76562 v 7.32227 c 0,0.74301 0.25713,1.37711 0.76953,1.90234 0.51243,0.51243 1.14652,0.76758 1.90235,0.76758 h 0.0566 c 0.75583,0 1.38994,-0.25515 1.90234,-0.76758 0.53805,-0.52523 0.80664,-1.15933 0.80664,-1.90234 l -0.0371,-6.24609 c 0,-2.72864 -0.6792,-4.95808 -2.03711,-6.6875 -1.34511,-1.74223 -3.47091,-2.4598 -6.3789,-2.15235 -1.28106,0.14093 -2.63946,0.847 -4.07422,2.11524 l -0.0586,-6.80274 c 0,-0.75582 -0.25517,-1.38992 -0.76758,-1.90234 -0.53804,-0.51242 -1.1856,-0.76953 -1.9414,-0.76953 z m -241.138676,0.5 c -4.009693,0 -7.302039,1.09651 -9.8769528,3.28711 -2.7158298,2.29308 -4.0857079,5.4185 -4.1113281,9.37695 0.025625,3.5229 1.1585538,6.35955 3.4003907,8.51172 2.3827552,2.29308 5.7134722,3.43945 9.9921872,3.43945 1.268241,0 2.735023,-0.14004 4.400391,-0.42187 0.409935,-0.0641 0.840692,-0.13406 1.289062,-0.21094 0.871113,-0.17935 1.581959,-0.61011 2.132813,-1.28906 0.563663,-0.70458 0.857192,-1.49889 0.882812,-2.38282 v -7.20507 c 0.02563,-0.65334 -0.197882,-1.2107 -0.671875,-1.67188 -0.461178,-0.47399 -1.018538,-0.69749 -1.671875,-0.67187 H 18.71875 c -0.71739,0 -1.286237,0.28204 -1.708984,0.8457 -0.512421,0.65334 -0.629476,1.44765 -0.347657,2.38281 v 0.0371 c 0.281832,1.07608 0.866075,1.40322 1.75,0.98047 l 1.113282,-0.55664 c 0.281831,-0.14093 0.590756,-0.0258 0.923828,0.3457 0.281832,0.2306 0.421875,0.55774 0.421875,0.98047 v 2.80469 c 0,0.42275 -0.198578,0.83334 -0.595703,1.23047 -0.397128,0.39713 -0.877746,0.5957 -1.441407,0.5957 h -0.767578 c -2.229032,0 -4.113128,-0.67919 -5.65039,-2.03711 -1.665369,-1.49883 -2.5882324,-3.27453 -2.7675785,-5.32422 -0.2306016,-2.45962 0.4821975,-4.56527 2.1347655,-6.32031 1.152948,-1.22981 3.175134,-1.71043 6.070313,-1.44141 l 5.361328,0.53711 c 1.101704,0.0897 1.884525,-0.43603 2.345703,-1.57617 l 0.03711,-0.0371 c 0.397128,-1.12732 0.295464,-2.15858 -0.30664,-3.09375 -0.333075,-0.46118 -0.78204,-0.71829 -1.345704,-0.76953 -2.805501,-0.2306 -4.676159,-0.3457 -5.611328,-0.3457 z m 422.402346,0.4043 c -0.80706,-1e-5 -1.47282,0.26859 -1.99805,0.80664 -0.56365,0.56366 -0.8457,1.24286 -0.8457,2.0371 v 18.36915 c 0,0.79425 0.28205,1.47344 0.8457,2.03711 0.56365,0.55084 1.22942,0.82617 1.99805,0.82617 h 0.0566 c 0.80705,0 1.48625,-0.27533 2.03711,-0.82617 0.56365,-0.56367 0.8457,-1.24286 0.8457,-2.03711 v -18.36915 c 0,-0.79424 -0.28205,-1.47344 -0.8457,-2.0371 -0.55086,-0.53805 -1.23006,-0.80665 -2.03711,-0.80664 z m -201.84375,0.0195 c -0.79426,0 -1.4715,0.28009 -2.03516,0.84375 -0.56368,0.56366 -0.8457,1.23136 -0.8457,2 v 18.6582 c 0,0.74301 0.28202,1.39532 0.8457,1.95898 0.53803,0.53804 1.19036,0.8086 1.95899,0.8086 h 0.0762 c 0.7302,0 1.38448,-0.27056 1.96094,-0.8086 0.56367,-0.51242 0.8457,-1.16473 0.8457,-1.95898 v -5.91797 l 4.22656,-0.0781 1.80664,5.36132 c 0.60211,1.80629 1.65354,2.9028 3.15235,3.28711 0.7174,0.20498 1.40135,0.1148 2.05468,-0.26953 h 0.0391 c 0.56365,-0.0129 0.98575,-0.57693 1.26757,-1.6914 0.2177,-0.87112 0.12285,-1.65199 -0.28711,-2.34375 L 250.461,263.3477 c 0.55085,-0.47399 1.00653,-0.99298 1.36523,-1.55664 0.98641,-1.53727 1.47852,-3.08079 1.47852,-4.63086 0,-1.90877 -0.63411,-3.59906 -1.90235,-5.07227 -1.24263,-1.4604 -2.79764,-2.32473 -4.66796,-2.59375 l -0.17383,-0.0391 c -0.20485,-0.0513 -0.55021,-0.0762 -1.03711,-0.0762 z m -117.77344,2.45898 c -0.70458,-0.0128 -1.2485,0.14064 -1.63281,0.46094 -0.70458,0.52523 -1.05664,1.23607 -1.05664,2.13281 v 1.96094 h -0.69141 c -0.51242,0 -0.94794,0.18513 -1.30664,0.55664 -0.34588,0.34588 -0.51953,0.76797 -0.51953,1.26758 v 0.0391 c 0,0.53804 0.17365,0.96685 0.51953,1.28711 0.34589,0.33307 0.78141,0.5 1.30664,0.5 h 0.69141 V 264.75 c 0,2.39557 0.39715,4.38134 1.1914,5.95703 0.93517,1.83191 2.17173,2.74133 3.70899,2.72852 0.94798,0.0129 1.63866,-0.63946 2.07422,-1.95899 0.17935,-0.56366 0.23788,-1.05772 0.17382,-1.48047 -0.0897,-0.49961 -0.34678,-0.86988 -0.76953,-1.11328 -1.08889,-0.56366 -1.62609,-1.8271 -1.61328,-3.78711 v -5.05273 h 1.61328 c 0.49961,0 0.91693,-0.16693 1.25,-0.5 0.3587,-0.32026 0.53711,-0.74907 0.53711,-1.28711 v -0.0391 c 0,-0.47399 -0.17841,-0.89608 -0.53711,-1.26758 -0.35869,-0.37151 -0.77601,-0.55664 -1.25,-0.55664 h -1.61328 v -1.96094 c -0.0129,-0.60209 -0.2047,-1.13929 -0.57617,-1.61328 -0.51242,-0.65334 -0.98632,-0.98047 -1.42187,-0.98047 z m 120.58008,0.0762 h 2.76758 c 0.90955,0 1.71534,0.37223 2.41992,1.11524 0.69175,0.70458 1.03906,2.02459 1.03906,3.95898 0,1.9472 -0.34731,3.27199 -1.03906,3.97656 -0.65336,0.69177 -1.45914,1.05056 -2.41992,1.07618 h -2.76758 z m 185.20117,3.34375 c -0.1794,0 -0.3511,0.007 -0.51758,0.0195 -2.21621,-0.0129 -4.22214,0.87165 -6.01562,2.65235 -1.78066,1.78066 -2.67666,3.95157 -2.68946,6.51367 0,2.54929 0.92092,4.74708 2.76563,6.5918 1.85751,1.84471 4.01692,2.71576 6.47656,2.61328 0.16655,0.0129 0.34021,0.0129 0.51953,0 2.17779,0.0129 4.17506,-0.87837 5.99414,-2.67188 1.81909,-1.80628 2.73523,-3.97719 2.74805,-6.51367 -0.0126,-2.53648 -0.922,-4.70262 -2.72852,-6.49609 -1.79345,-1.80629 -3.97781,-2.70899 -6.55273,-2.70899 z m -147.11523,0.21094 c -0.88393,0 -1.57657,0.37222 -2.07618,1.11523 -0.4868,0.75583 -0.54327,1.54341 -0.17187,2.36329 2.30589,5.18826 3.82926,9.60204 4.57227,13.24023 v 0.0566 c 0,1.98563 -0.55064,3.24907 -1.65235,3.78711 -0.47398,0.2306 -0.96804,0.35048 -1.48047,0.36328 -0.65333,-0.0128 -1.12051,0.19245 -1.40234,0.61524 -0.42275,0.71738 -0.63281,1.198 -0.63281,1.4414 v 0.0391 c 0.0126,0.94798 0.43469,1.58209 1.26757,1.90235 0.37153,0.14092 0.6785,0.24259 0.92188,0.30664 2.11374,0.43556 4.00454,0.072 5.66992,-1.09375 1.49881,-1.02484 2.57321,-2.51851 3.22656,-4.47852 3.51008,-10.51743 5.33564,-15.97396 5.47657,-16.37109 0.29462,-0.81987 0.17947,-1.57581 -0.34571,-2.26758 -0.53803,-0.67896 -1.21723,-1.01953 -2.03711,-1.01953 h -0.0371 c -0.6149,0 -1.12719,0.1602 -1.5371,0.48047 -0.51243,0.40993 -0.80792,0.83397 -0.88477,1.26953 -0.87113,5.07297 -1.85057,8.74902 -2.93945,11.0293 l -3.13282,-11.08789 c -0.16655,-0.61491 -0.46679,-1.0255 -0.90234,-1.23047 -0.70458,-0.30745 -1.1852,-0.46094 -1.44141,-0.46094 z m 101.68945,0 c -0.88393,0 -1.57654,0.37222 -2.07617,1.11523 -0.48678,0.75583 -0.54351,1.54341 -0.17188,2.36329 2.30589,5.18826 3.83122,9.60204 4.57422,13.24023 v 0.0566 c 0,1.98563 -0.55259,3.24907 -1.6543,3.78711 -0.47397,0.2306 -0.96608,0.35048 -1.47851,0.36328 -0.65333,-0.0128 -1.12052,0.19245 -1.40235,0.61524 -0.42274,0.71738 -0.63476,1.198 -0.63476,1.4414 v 0.0391 c 0.0126,0.94798 0.4347,1.58209 1.26758,1.90235 0.3715,0.14092 0.68042,0.24259 0.92383,0.30664 2.11373,0.43556 4.00258,0.072 5.66796,-1.09375 1.49881,-1.02484 2.57517,-2.51851 3.22852,-4.47852 3.51007,-10.51743 5.33564,-15.97396 5.47656,-16.37109 0.29463,-0.81987 0.17948,-1.57581 -0.3457,-2.26758 -0.53803,-0.67896 -1.21723,-1.01953 -2.03711,-1.01953 h -0.0391 c -0.61491,0 -1.12718,0.1602 -1.53711,0.48047 -0.51243,0.40993 -0.80789,0.83397 -0.88477,1.26953 -0.8711,5.07297 -1.85057,8.74902 -2.93945,11.0293 l -3.13281,-11.08789 c -0.16655,-0.61491 -0.46679,-1.0255 -0.90235,-1.23047 -0.70458,-0.30745 -1.1852,-0.46094 -1.4414,-0.46094 z m -56.51367,0.1543 c -2.33152,0 -4.31727,0.86433 -5.95703,2.59375 -1.63974,1.72942 -2.45899,3.82358 -2.45899,6.2832 0,2.45962 0.81925,4.55574 2.45899,6.28516 1.63976,1.72942 3.62551,2.59375 5.95703,2.59375 1.44758,0 2.80598,-0.37895 4.07422,-1.13477 0.0897,2.63897 -1.01158,3.95898 -3.30469,3.95898 -1.52444,0 -2.95285,-0.0134 -4.28516,-0.0391 -0.96078,-0.0129 -1.61507,0.44956 -1.96093,1.38477 l -0.0391,0.0195 c -0.23055,0.66615 -0.1471,1.28681 0.25,1.86328 0.42276,0.58928 0.98683,0.88477 1.69141,0.88477 1.48601,0.0128 2.77437,0.0243 3.86328,0.0371 0.1794,-0.0256 0.33962,-0.0371 0.48047,-0.0371 0.19225,0.0128 0.35722,0.0243 0.49805,0.0371 2.31871,0.0256 4.23445,-0.59504 5.74609,-1.86329 1.69099,-1.38353 2.55532,-3.4144 2.59375,-6.09179 h 0.0391 v -14.21875 c 0,-0.62772 -0.23696,-1.17359 -0.71094,-1.63477 -0.46117,-0.47399 -1.00508,-0.71094 -1.63281,-0.71094 h -2.24805 c -0.25619,0 -0.48167,0.0969 -0.67382,0.28907 -0.1794,0.17935 -0.26953,0.39137 -0.26953,0.63476 -1.29386,-0.75582 -2.66375,-1.13476 -4.11133,-1.13476 z m -256.396487,0.0332 c -0.678958,-0.0352 -1.403244,0.0125 -2.171875,0.14063 -0.896736,0.15371 -2.266614,0.77438 -4.111328,1.86328 v -0.0391 c 0,-0.42274 -0.160204,-0.8199 -0.480469,-1.1914 -0.333072,-0.37151 -0.755157,-0.55664 -1.267578,-0.55664 h -1.998047 c -0.448368,0.0128 -0.872403,0.19798 -1.269531,0.55664 -0.345885,0.32026 -0.517578,0.73086 -0.517578,1.23047 v 13.66211 c 0,0.7302 0.268597,1.3643 0.806641,1.90234 0.345881,0.34588 0.979985,0.51953 1.902343,0.51953 h 0.0957 c 0.909546,0.0128 1.543649,-0.1608 1.902344,-0.51953 0.512421,-0.51242 0.769531,-1.14652 0.769531,-1.90234 v -8.12891 -0.0371 c 0,-0.0384 0.01822,-0.18042 0.05664,-0.42383 0.128101,-0.64052 0.748762,-1.29284 1.863281,-1.95898 1.242621,-0.75582 2.447525,-0.85274 3.613281,-0.28906 1.076082,0.53803 1.613282,1.72278 1.613282,3.55468 v 7.28321 c 0,0.75582 0.27055,1.38992 0.808594,1.90234 0.358693,0.34588 0.992797,0.51953 1.902343,0.51953 h 0.01953 c 0.922359,0.0128 1.567949,-0.1608 1.939454,-0.51953 0.538041,-0.53804 0.80664,-1.17214 0.80664,-1.90234 l -0.03711,-6.95508 c -0.01285,-2.95923 -0.461818,-5.02175 -1.345703,-6.1875 -1.229811,-1.5757 -2.863518,-2.41775 -4.900391,-2.52344 z m 239.275387,0 c -0.67895,-0.0352 -1.40324,0.0125 -2.17187,0.14063 -0.89673,0.15371 -2.26662,0.77438 -4.11133,1.86328 v -0.0391 c 0,-0.42274 -0.16019,-0.8199 -0.48047,-1.1914 -0.33308,-0.37151 -0.75713,-0.55664 -1.26953,-0.55664 h -1.99805 c -0.44835,0.0128 -0.87045,0.19798 -1.26757,0.55664 -0.34591,0.32026 -0.51954,0.73086 -0.51954,1.23047 v 13.66211 c 0,0.7302 0.27054,1.3643 0.8086,1.90234 0.34588,0.34588 0.97999,0.51953 1.90234,0.51953 h 0.0957 c 0.90956,0.0128 1.54365,-0.1608 1.90235,-0.51953 0.5124,-0.51242 0.76758,-1.14652 0.76758,-1.90234 v -8.12891 -0.0371 c 0,-0.0384 0.02,-0.18042 0.0586,-0.42383 0.128,-0.64052 0.74867,-1.29284 1.86328,-1.95898 1.24263,-0.75582 2.44753,-0.85274 3.61328,-0.28906 1.07609,0.53803 1.61328,1.72278 1.61328,3.55468 v 7.28321 c 0,0.75582 0.26863,1.38992 0.80664,1.90234 0.35871,0.34588 0.99279,0.51953 1.90235,0.51953 h 0.0195 c 0.92236,0.0128 1.5699,-0.1608 1.94141,-0.51953 0.53805,-0.53804 0.80664,-1.17214 0.80664,-1.90234 l -0.0391,-6.95508 c -0.0126,-2.95923 -0.45961,-5.02175 -1.34375,-6.1875 -1.22982,-1.5757 -2.86351,-2.41775 -4.90039,-2.52344 z m -127.38086,0.0625 c -1.96001,0 -3.31167,0.26383 -4.05468,0.78906 -0.38432,0.25621 -0.76999,0.68502 -1.1543,1.28711 -0.87112,-1.33229 -1.77382,-1.99805 -2.70898,-1.99804 h -0.0957 c -0.7302,0 -1.37774,0.26859 -1.9414,0.80664 -0.51242,0.51242 -0.76758,1.14652 -0.76758,1.90234 v 12.20117 c 0,0.75582 0.25516,1.38992 0.76758,1.90235 0.51242,0.52522 1.14652,0.78906 1.90234,0.78906 h 0.0586 c 0.75582,0 1.38993,-0.26384 1.90235,-0.78906 0.53804,-0.55086 0.80664,-1.18496 0.80664,-1.90235 v -7.43555 h 0.0391 v -0.0391 c 0,-0.1281 0.0115,-0.26814 0.0371,-0.42187 0.15373,-0.67896 0.65451,-1.31978 1.5,-1.92188 0.83269,-0.58928 1.83901,-0.78786 3.01758,-0.5957 0.70458,0.10247 1.14487,-0.41651 1.32422,-1.55664 l 0.38476,-1.78711 c 0.064,-0.30745 -0.006,-0.59621 -0.21094,-0.86524 -0.17934,-0.2434 -0.44795,-0.36523 -0.80664,-0.36523 z m 41.89063,0 c -1.96001,0 -3.31168,0.26383 -4.05469,0.78906 -0.3843,0.25621 -0.76997,0.68502 -1.1543,1.28711 -0.87109,-1.33229 -1.7738,-1.99805 -2.70898,-1.99804 h -0.0957 c -0.73021,0 -1.37776,0.26859 -1.94141,0.80664 -0.51243,0.51242 -0.76758,1.14652 -0.76758,1.90234 v 12.20117 c 0,0.75582 0.25515,1.38992 0.76758,1.90235 0.51243,0.52522 1.14654,0.78906 1.90235,0.78906 h 0.0586 c 0.7558,0 1.38991,-0.26384 1.90234,-0.78906 0.53803,-0.55086 0.80664,-1.18496 0.80664,-1.90235 v -7.43555 h 0.0391 v -0.0391 c 0,-0.1281 0.0134,-0.26814 0.0391,-0.42187 0.1537,-0.67896 0.65252,-1.31978 1.49804,-1.92188 0.83269,-0.58928 1.83903,-0.78786 3.01758,-0.5957 0.70458,0.10247 1.14487,-0.41651 1.32422,-1.55664 l 0.38477,-1.78711 c 0.064,-0.30745 -0.006,-0.59621 -0.21094,-0.86524 -0.1794,-0.2434 -0.44799,-0.36523 -0.80664,-0.36523 z m 125.36328,0 c -1.96001,0 -3.31166,0.26383 -4.05469,0.78906 -0.3843,0.25621 -0.76801,0.68502 -1.15234,1.28711 -0.87111,-1.33229 -1.77578,-1.99805 -2.71094,-1.99804 h -0.0957 c -0.73018,0 -1.37578,0.26859 -1.93945,0.80664 -0.51241,0.51242 -0.76954,1.14652 -0.76954,1.90234 v 12.20117 c 0,0.75582 0.25713,1.38992 0.76954,1.90235 0.51242,0.52522 1.14651,0.78906 1.90234,0.78906 h 0.0566 c 0.75583,0 1.38994,-0.26384 1.90234,-0.78906 0.53806,-0.55086 0.80664,-1.18496 0.80664,-1.90235 v -7.43555 h 0.0391 v -0.0391 c 0,-0.1281 0.0134,-0.26814 0.0391,-0.42187 0.1537,-0.67896 0.65252,-1.31978 1.49805,-1.92188 0.83268,-0.58928 1.83899,-0.78786 3.01757,-0.5957 0.70456,0.10247 1.14683,-0.41651 1.32618,-1.55664 l 0.38476,-1.78711 c 0.064,-0.30745 -0.008,-0.59621 -0.21289,-0.86524 -0.1794,-0.2434 -0.44801,-0.36523 -0.80664,-0.36523 z m -262.123046,0.0195 c -2.421188,-0.0513 -4.497144,0.79487 -6.226563,2.53711 -1.716611,1.74223 -2.574218,3.84313 -2.574219,6.30273 0,2.45963 0.909422,4.56051 2.728516,6.30274 1.755041,1.67818 3.594048,2.51758 5.515625,2.51758 2.6774,0.0129 4.778282,-0.39775 6.302735,-1.23047 1.05046,-0.57647 1.639472,-1.15204 1.767578,-1.72852 l 0.03906,-0.0195 c 0.166551,-0.69177 0.04472,-1.33259 -0.365234,-1.92187 -0.525231,-0.71739 -1.217867,-0.88432 -2.076172,-0.5 l -1.978516,0.88476 c -2.369945,1.05046 -4.265531,0.92863 -5.6875,-0.36523 -0.384315,-0.37151 -0.76326,-1.14089 -1.134765,-2.30664 h 10.703125 c 1.024841,0 1.537109,-0.5372 1.537109,-1.61328 v -0.0195 c 0.01285,-2.5749 -0.84476,-4.68252 -2.574219,-6.32226 -1.716611,-1.63975 -3.7091,-2.47915 -5.976562,-2.51758 z m 13.029297,0.13477 c -0.909546,-0.0129 -1.543649,0.16079 -1.902344,0.51953 -0.512421,0.52523 -0.769531,1.07587 -0.769531,1.65234 v 6.97461 c 0,2.47243 0.679195,4.57331 2.037109,6.30274 1.575695,2.01125 3.701505,2.73553 6.378905,2.17187 1.12733,-0.2306 2.48571,-0.81289 4.07422,-1.74805 -0.0129,0.40994 0.17229,0.81858 0.55664,1.22852 0.33307,0.34588 0.73023,0.51953 1.19141,0.51953 h 2.03711 c 0.51242,0 0.92973,-0.17365 1.25,-0.51953 0.33307,-0.34589 0.5,-0.75453 0.5,-1.22852 v -13.45117 c 0,-0.75582 -0.25711,-1.38992 -0.76954,-1.90234 -0.34587,-0.34589 -0.97998,-0.51953 -1.90234,-0.51953 h -0.0586 c -0.92236,-0.0129 -1.56795,0.16079 -1.93946,0.51953 -0.53804,0.51242 -0.80664,1.14652 -0.80664,1.90234 v 7.95508 0.0195 c 0,0.0769 -0.0202,0.21692 -0.0586,0.42188 -0.16655,0.81987 -0.77572,1.55088 -1.82617,2.1914 -1.03765,0.61491 -2.22911,0.58803 -3.57422,-0.0781 -1.12733,-0.53805 -1.68945,-1.67097 -1.68945,-3.40039 v -7.35938 c 0,-0.58928 -0.25711,-1.13992 -0.76954,-1.65234 -0.35868,-0.34589 -0.992793,-0.51953 -1.902339,-0.51953 z m 53.341799,0 c -0.90955,-0.0129 -1.54365,0.16079 -1.90235,0.51953 -0.51242,0.52523 -0.76757,1.07587 -0.76757,1.65234 v 6.97461 c 0,2.47243 0.6792,4.57331 2.0371,6.30274 1.5757,2.01125 3.70151,2.73553 6.37891,2.17187 1.12733,-0.2306 2.48571,-0.81289 4.07422,-1.74805 -0.0128,0.40994 0.17229,0.81858 0.55664,1.22852 0.33308,0.34588 0.73023,0.51953 1.19141,0.51953 h 2.03711 c 0.51242,0 0.92778,-0.17365 1.24804,-0.51953 0.33308,-0.34589 0.5,-0.75453 0.5,-1.22852 v -13.45117 c 0,-0.75582 -0.25516,-1.38992 -0.76757,-1.90234 -0.34589,-0.34589 -0.97999,-0.51953 -1.90235,-0.51953 h -0.0586 c -0.92236,-0.0129 -1.5699,0.16079 -1.94141,0.51953 -0.53804,0.51242 -0.80664,1.14652 -0.80664,1.90234 v 7.95508 0.0195 c 0,0.0769 -0.0182,0.21692 -0.0566,0.42188 -0.16653,0.81987 -0.7757,1.55088 -1.82617,2.1914 -1.03765,0.61491 -2.22912,0.58803 -3.57422,-0.0781 -1.12733,-0.53805 -1.69141,-1.67097 -1.69141,-3.40039 v -7.35938 c 0,-0.58928 -0.25516,-1.13992 -0.76757,-1.65234 -0.3587,-0.34589 -0.9928,-0.51953 -1.90235,-0.51953 z m -121.289065,0.0195 c -0.832683,0 -1.498436,0.35206 -1.998047,1.05664 -0.486798,0.67896 -0.583709,1.42145 -0.289062,2.22851 l 4.324218,11.83789 c 0.269022,0.74301 0.722758,1.33203 1.363282,1.76758 0.653336,0.43556 1.377622,0.65235 2.171875,0.65235 h 0.03906 c 0.819873,0.0129 1.575811,-0.24231 2.267578,-0.76758 0.69177,-0.52523 1.152224,-1.20443 1.382813,-2.03711 l 1.363281,-5.01563 1.404297,5.01563 c 0.243401,0.8583 0.683695,1.5375 1.324219,2.03711 0.678956,0.51242 1.455057,0.76758 2.326171,0.76758 h 0.05664 c 0.781443,0.0129 1.48752,-0.20394 2.115235,-0.65235 0.666145,-0.44836 1.133322,-1.03738 1.402343,-1.76758 l 4.304688,-11.83789 c 0.307452,-0.80706 0.223978,-1.54955 -0.25,-2.22851 -0.461178,-0.70458 -1.13365,-1.05664 -2.017578,-1.05664 h -0.07813 c -1.165758,0 -1.939904,0.53719 -2.324219,1.61328 l -1.882813,5.45703 c -0.422745,1.65256 -0.846783,3.29971 -1.269531,4.93945 -1.421969,-5.94408 -2.241205,-9.34005 -2.458984,-10.18554 -0.128101,-0.55086 -0.403422,-0.99787 -0.826172,-1.34375 -0.422748,-0.32027 -0.941737,-0.48047 -1.556641,-0.48047 h -0.55664 c -0.512421,0 -0.999757,0.1602 -1.460938,0.48047 -0.473988,0.33307 -0.780959,0.78008 -0.921875,1.34375 l -2.382812,10.18554 c -0.871116,-3.22825 -1.313362,-4.8754 -1.326172,-4.93945 l -1.902344,-5.45703 c -0.371505,-1.07609 -1.140883,-1.61328 -2.306641,-1.61328 z m 154.878905,0 c -0.83268,0 -1.49843,0.35206 -1.99805,1.05664 -0.48679,0.67896 -0.58371,1.42145 -0.28906,2.22851 l 4.32422,11.83789 c 0.26902,0.74301 0.72275,1.33203 1.36328,1.76758 0.65333,0.43556 1.37762,0.65235 2.17188,0.65235 h 0.0391 c 0.81985,0.0129 1.5758,-0.24231 2.26758,-0.76758 0.69178,-0.52523 1.15223,-1.20443 1.38281,-2.03711 l 1.36523,-5.01563 1.40235,5.01563 c 0.2434,0.8583 0.68564,1.5375 1.32617,2.03711 0.67895,0.51242 1.45309,0.76758 2.32422,0.76758 h 0.0586 c 0.78143,0.0129 1.48555,-0.20394 2.11328,-0.65235 0.66613,-0.44836 1.13332,-1.03738 1.40235,-1.76758 l 4.30469,-11.83789 c 0.30744,-0.80706 0.22399,-1.54955 -0.25,-2.22851 -0.46118,-0.70458 -1.13365,-1.05664 -2.01758,-1.05664 h -0.0762 c -1.16574,0 -1.94184,0.53719 -2.32617,1.61328 l -1.88281,5.45703 c -0.42273,1.65256 -0.84482,3.29971 -1.26758,4.93945 -1.42198,-5.94408 -2.24316,-9.34005 -2.46094,-10.18554 -0.12798,-0.55086 -0.40331,-0.99787 -0.82617,-1.34375 -0.42272,-0.32027 -0.94173,-0.48047 -1.55664,-0.48047 h -0.55664 c -0.5124,0 -0.99976,0.1602 -1.46094,0.48047 -0.474,0.33307 -0.78097,0.78008 -0.92187,1.34375 l -2.38281,10.18554 c -0.87111,-3.22825 -1.31336,-4.8754 -1.32617,-4.93945 l -1.90235,-5.45703 c -0.37151,-1.07609 -1.13893,-1.61328 -2.30469,-1.61328 z m 167.25391,0 c -0.83268,0 -1.49845,0.35206 -1.99805,1.05664 -0.4868,0.67896 -0.58361,1.42145 -0.28906,2.22851 l 4.32422,11.83789 c 0.26902,0.74301 0.72275,1.33203 1.36328,1.76758 0.65333,0.43556 1.37762,0.65235 2.17187,0.65235 h 0.0391 c 0.81988,0.0129 1.57582,-0.24231 2.26757,-0.76758 0.69178,-0.52523 1.15224,-1.20443 1.38282,-2.03711 l 1.36523,-5.01563 1.40234,5.01563 c 0.24341,0.8583 0.68565,1.5375 1.32618,2.03711 0.67895,0.51242 1.45308,0.76758 2.32422,0.76758 h 0.0586 c 0.78145,0.0129 1.48558,-0.20394 2.11328,-0.65235 0.66615,-0.44836 1.13334,-1.03738 1.40234,-1.76758 l 4.30469,-11.83789 c 0.30745,-0.80706 0.224,-1.54955 -0.25,-2.22851 -0.46118,-0.70458 -1.13365,-1.05664 -2.01758,-1.05664 h -0.0762 c -1.16576,0 -1.94187,0.53719 -2.32617,1.61328 l -1.88281,5.45703 c -0.42276,1.65256 -0.84483,3.29971 -1.26758,4.93945 -1.42196,-5.94408 -2.24316,-9.34005 -2.46094,-10.18554 -0.128,-0.55086 -0.40332,-0.99787 -0.82617,-1.34375 -0.42275,-0.32027 -0.94174,-0.48047 -1.55664,-0.48047 h -0.55664 c -0.51243,0 -0.99976,0.1602 -1.46094,0.48047 -0.47398,0.33307 -0.78095,0.78008 -0.92187,1.34375 l -2.38282,10.18554 c -0.8711,-3.22825 -1.31334,-4.8754 -1.32617,-4.93945 l -1.90234,-5.45703 c -0.3715,-1.07609 -1.13893,-1.61328 -2.30469,-1.61328 z m 74.11523,2.66992 c 1.14013,0.0129 2.08795,0.42344 2.84375,1.23047 0.66616,0.74301 1.00673,1.87594 1.01953,3.40039 -0.0126,3.03609 -0.35317,4.94512 -1.01953,5.72656 -0.8583,0.94798 -1.80612,1.4286 -2.84375,1.44141 -0.8583,-0.0129 -1.71591,-0.49347 -2.57422,-1.44141 -0.8583,-0.93517 -1.29381,-2.84419 -1.30664,-5.72656 0,-1.28105 0.43551,-2.41398 1.30664,-3.40039 0.73018,-0.80706 1.58779,-1.21766 2.57422,-1.23047 z m -20.36914,0.2832 c 0.58288,-0.0288 1.16712,0.0707 1.75,0.29492 1.02486,0.39713 1.67045,0.95254 1.93945,1.66993 v 6.49609 c -0.0257,1.42197 -0.64637,2.34483 -1.86328,2.76758 -0.6149,0.19215 -1.19719,0.24872 -1.74804,0.17187 -1.03766,0.0256 -1.90871,-0.42811 -2.61329,-1.36328 -0.69174,-0.93517 -1.03906,-2.07005 -1.03906,-3.40234 v -2.30469 c 0,-0.87111 0.16022,-1.66065 0.48047,-2.36523 0.33308,-0.74301 0.78205,-1.24184 1.3457,-1.49805 0.58288,-0.28183 1.16517,-0.43797 1.74805,-0.4668 z m -81.16797,0.25977 c 0.58288,-0.0288 1.16712,0.0721 1.75,0.30273 1.02483,0.37151 1.67043,0.93559 1.93946,1.69141 v 6.30273 c -0.0257,1.4604 -0.64635,2.39475 -1.86329,2.80469 -0.6149,0.19215 -1.19719,0.24397 -1.74804,0.1543 -1.01203,0 -1.87637,-0.46718 -2.59375,-1.40235 -0.70458,-0.93516 -1.05664,-2.06332 -1.05664,-3.38281 v -2.09375 c 0,-0.88392 0.16019,-1.67823 0.48047,-2.38281 0.33305,-0.7302 0.78007,-1.23575 1.34375,-1.51758 0.58287,-0.28824 1.16516,-0.44774 1.74804,-0.47656 z m -239.753904,0.0527 c 0.947979,0 1.805589,0.21202 2.574219,0.63477 0.896738,0.49961 1.557724,1.49249 1.980469,2.97851 h -8.417969 c 0.217776,-1.11451 0.608211,-1.92703 1.171875,-2.43945 0.871116,-0.78144 1.769048,-1.17383 2.691406,-1.17383 z"
       transform="matrix(0.26458333,0,0,0.26458333,50.364853,-113.26601)"
       id="path1106"
       inkscape:connector-curvature="0" />
  </g>
</svg>
